<?xml version="1.0" encoding="UTF-8"?>
<!-- Generator: visioncortex VTracer 0.6.3 -->
<svg version="1.1" xmlns="http://www.w3.org/2000/svg" width="1280" height="1280">
<path d="M0 0 C422.4 0 844.8 0 1280 0 C1280 422.4 1280 844.8 1280 1280 C857.6 1280 435.2 1280 0 1280 C0 857.6 0 435.2 0 0 Z " fill="#F9FCFE" transform="translate(0,0)"/>
<path d="M0 0 C1.06 -0 1.06 -0 2.14 -0.01 C4.53 -0.02 6.91 -0.02 9.29 -0.02 C11.01 -0.03 12.73 -0.03 14.45 -0.04 C19.19 -0.05 23.92 -0.06 28.66 -0.06 C32.72 -0.07 36.78 -0.08 40.85 -0.09 C54.23 -0.12 67.61 -0.15 80.99 -0.16 C84.48 -0.17 87.97 -0.17 91.45 -0.18 C113.1 -0.21 134.75 -0.24 156.4 -0.25 C161.42 -0.26 166.43 -0.26 171.45 -0.27 C172.69 -0.27 173.94 -0.27 175.23 -0.27 C195.41 -0.29 215.59 -0.33 235.77 -0.38 C256.49 -0.43 277.22 -0.46 297.94 -0.47 C309.58 -0.47 321.21 -0.48 332.84 -0.53 C342.75 -0.56 352.66 -0.57 362.58 -0.56 C367.63 -0.55 372.68 -0.56 377.74 -0.59 C382.37 -0.62 387.01 -0.62 391.64 -0.59 C393.31 -0.59 394.98 -0.6 396.64 -0.62 C411.03 -0.76 425.11 1.94 436.01 12.14 C436.88 12.94 437.74 13.75 438.63 14.58 C439.81 15.85 439.81 15.85 441.01 17.14 C441.94 18.07 442.87 19 443.82 19.95 C446.97 23.66 449.08 27.82 451.26 32.14 C451.6 32.82 451.94 33.49 452.29 34.19 C456.73 43.29 458.13 52.32 458.14 62.37 C458.14 63.06 458.14 63.74 458.14 64.45 C458.15 66.73 458.14 69.01 458.14 71.29 C458.14 72.95 458.15 74.6 458.15 76.26 C458.16 80.81 458.16 85.35 458.15 89.89 C458.15 94.8 458.16 99.7 458.16 104.61 C458.17 114.21 458.18 123.82 458.18 133.42 C458.18 141.23 458.18 149.04 458.18 156.85 C458.19 178.99 458.19 201.13 458.19 223.28 C458.19 225.07 458.19 225.07 458.19 226.89 C458.19 228.68 458.19 228.68 458.19 230.51 C458.19 249.88 458.2 269.24 458.22 288.61 C458.23 308.5 458.24 328.39 458.24 348.28 C458.24 359.44 458.24 370.61 458.25 381.77 C458.26 391.28 458.26 400.78 458.26 410.29 C458.25 415.14 458.25 419.98 458.26 424.83 C458.27 429.27 458.27 433.72 458.26 438.16 C458.26 439.76 458.26 441.36 458.26 442.97 C458.29 451.47 458.27 459.87 456.01 468.14 C454.22 469.92 451.59 469.27 449.17 469.27 C447.9 469.27 446.62 469.28 445.31 469.28 C443.87 469.28 442.44 469.28 441.01 469.28 C439.5 469.28 437.99 469.28 436.48 469.29 C432.31 469.29 428.14 469.3 423.97 469.3 C419.48 469.3 414.99 469.31 410.51 469.31 C402.72 469.32 394.93 469.33 387.15 469.34 C374.84 469.35 362.53 469.37 350.21 469.39 C346 469.4 341.79 469.41 337.58 469.41 C336.53 469.42 335.48 469.42 334.39 469.42 C322.4 469.44 310.41 469.46 298.42 469.48 C296.78 469.48 296.78 469.48 295.1 469.48 C277.35 469.51 259.6 469.53 241.85 469.54 C223.63 469.56 205.41 469.59 187.2 469.63 C175.96 469.65 164.72 469.67 153.48 469.67 C145.77 469.67 138.06 469.68 130.35 469.7 C125.91 469.72 121.46 469.72 117.02 469.72 C112.94 469.71 108.87 469.72 104.79 469.74 C103.32 469.75 101.85 469.74 100.39 469.74 C82.52 469.67 67.31 473.27 54.19 485.94 C53.47 486.66 52.75 487.39 52.01 488.14 C51.43 488.68 50.86 489.22 50.27 489.78 C45.74 494.43 43.65 500.19 41.31 506.13 C40.01 509.14 40.01 509.14 38.01 511.14 C34.99 511.35 32.07 511.44 29.05 511.44 C28.15 511.44 27.25 511.45 26.32 511.45 C24.4 511.46 22.49 511.46 20.57 511.46 C17.68 511.45 14.79 511.48 11.9 511.5 C-8.07 511.57 -24.05 507.24 -38.99 493.14 C-53.59 477.95 -55.46 458.16 -55.38 438.1 C-55.38 436.44 -55.39 434.79 -55.4 433.13 C-55.41 428.63 -55.41 424.12 -55.4 419.62 C-55.39 414.74 -55.41 409.86 -55.42 404.99 C-55.43 395.45 -55.43 385.92 -55.43 376.38 C-55.42 368.63 -55.43 360.87 -55.43 353.12 C-55.43 351.46 -55.43 351.46 -55.43 349.77 C-55.44 347.52 -55.44 345.27 -55.44 343.03 C-55.45 321.98 -55.45 300.94 -55.44 279.89 C-55.43 260.66 -55.44 241.43 -55.46 222.2 C-55.49 202.43 -55.5 182.65 -55.49 162.88 C-55.49 151.79 -55.49 140.7 -55.51 129.61 C-55.52 120.17 -55.52 110.73 -55.5 101.29 C-55.5 96.48 -55.49 91.67 -55.51 86.86 C-55.52 82.45 -55.52 78.03 -55.5 73.62 C-55.49 72.03 -55.5 70.45 -55.51 68.86 C-55.64 48.1 -50.2 30.64 -35.62 15.45 C-26.02 6.14 -13.47 0.03 0 0 Z " fill="#00FD07" transform="translate(163.9911766052246,113.86019229888916)"/>
<path d="M0 0 C0.89 -0.01 1.79 -0.02 2.71 -0.02 C4.61 -0.04 6.51 -0.05 8.42 -0.06 C10.34 -0.07 12.26 -0.09 14.18 -0.12 C32.37 -0.4 49.12 1.19 63.11 14.11 C78.79 30.45 82.46 48.14 82.41 69.9 C82.42 71.58 82.42 73.26 82.43 74.94 C82.44 79.52 82.44 84.1 82.44 88.69 C82.43 93.64 82.45 98.6 82.46 103.55 C82.47 113.25 82.48 122.94 82.48 132.64 C82.48 140.53 82.48 148.41 82.49 156.3 C82.51 178.67 82.52 201.05 82.52 223.43 C82.52 225.23 82.52 225.23 82.52 227.08 C82.52 228.29 82.51 229.49 82.51 230.74 C82.51 250.29 82.53 269.84 82.56 289.39 C82.59 309.49 82.6 329.59 82.6 349.68 C82.6 360.96 82.61 372.23 82.63 383.51 C82.65 393.11 82.65 402.71 82.64 412.31 C82.63 417.2 82.63 422.09 82.65 426.99 C82.66 431.48 82.66 435.96 82.64 440.45 C82.64 442.07 82.64 443.68 82.66 445.3 C82.78 464.59 78.64 481.28 64.98 495.66 C49.54 509.68 33.6 511.39 13.74 511.37 C12.06 511.37 10.39 511.38 8.72 511.38 C4.13 511.38 -0.45 511.38 -5.03 511.38 C-9.98 511.38 -14.93 511.39 -19.88 511.39 C-29.57 511.4 -39.26 511.4 -48.95 511.41 C-56.83 511.41 -64.71 511.41 -72.59 511.41 C-94.94 511.42 -117.29 511.42 -139.63 511.42 C-141.44 511.42 -141.44 511.42 -143.28 511.42 C-144.49 511.42 -145.69 511.42 -146.94 511.42 C-166.47 511.42 -186.01 511.43 -205.55 511.45 C-225.63 511.46 -245.7 511.47 -265.77 511.47 C-277.04 511.47 -288.3 511.47 -299.57 511.48 C-309.16 511.49 -318.75 511.49 -328.34 511.48 C-333.23 511.48 -338.12 511.48 -343.01 511.49 C-347.5 511.5 -351.98 511.5 -356.46 511.49 C-358.08 511.49 -359.69 511.49 -361.31 511.49 C-382.42 511.56 -398.74 507.91 -414.86 493.24 C-428 478.33 -430.33 461.36 -430.23 442.17 C-430.23 440.49 -430.24 438.8 -430.24 437.12 C-430.25 432.53 -430.24 427.94 -430.23 423.35 C-430.22 418.39 -430.23 413.42 -430.24 408.46 C-430.25 398.75 -430.24 389.04 -430.23 379.33 C-430.22 368.02 -430.22 356.71 -430.22 345.4 C-430.22 325.21 -430.21 305.03 -430.19 284.84 C-430.17 265.27 -430.17 245.69 -430.17 226.11 C-430.18 204.78 -430.18 183.44 -430.17 162.11 C-430.16 159.83 -430.16 157.56 -430.16 155.28 C-430.16 154.16 -430.16 153.04 -430.16 151.89 C-430.16 144.01 -430.16 136.12 -430.16 128.24 C-430.16 118.64 -430.16 109.03 -430.14 99.43 C-430.13 94.53 -430.13 89.63 -430.13 84.73 C-430.14 80.25 -430.13 75.76 -430.12 71.27 C-430.12 69.65 -430.12 68.03 -430.12 66.41 C-430.14 58.17 -429.99 50.26 -427.86 42.24 C-424 41.33 -420.42 41.11 -416.46 41.11 C-415.17 41.11 -413.87 41.11 -412.53 41.11 C-411.09 41.11 -409.65 41.11 -408.21 41.11 C-406.68 41.11 -405.15 41.11 -403.62 41.11 C-400.29 41.11 -396.97 41.11 -393.64 41.11 C-388.22 41.11 -382.81 41.11 -377.39 41.11 C-370.55 41.1 -363.7 41.1 -356.86 41.1 C-343.41 41.1 -329.95 41.09 -316.5 41.07 C-314.38 41.07 -312.26 41.07 -310.15 41.06 C-306.94 41.06 -303.73 41.05 -300.52 41.05 C-288.41 41.04 -276.31 41.02 -264.2 41.01 C-262.54 41.01 -262.54 41.01 -260.85 41.01 C-242.93 40.99 -225 40.99 -207.08 40.99 C-188.67 40.99 -170.27 40.97 -151.86 40.94 C-140.51 40.92 -129.16 40.91 -117.81 40.93 C-110.03 40.93 -102.25 40.92 -94.46 40.9 C-89.98 40.89 -85.49 40.88 -81 40.9 C-76.89 40.91 -72.77 40.91 -68.66 40.88 C-67.18 40.87 -65.7 40.88 -64.21 40.89 C-47.46 41.02 -36.5 35 -24.35 23.96 C-18.58 18.08 -15.42 11.75 -12.27 4.27 C-9.72 -1.19 -5.39 0.05 0 0 Z " fill="#FA8103" transform="translate(1086.85546875,653.76171875)"/>
<path d="M0 0 C1.44 0.01 1.44 0.01 2.92 0.01 C5.95 0.03 8.99 0.07 12.02 0.11 C14.1 0.12 16.17 0.13 18.25 0.15 C23.3 0.18 28.35 0.23 33.4 0.29 C33.99 1.45 34.59 2.61 35.2 3.81 C36 5.35 36.8 6.89 37.6 8.43 C37.99 9.19 38.38 9.95 38.78 10.74 C44.08 20.89 51.5 28.77 61.59 34.36 C62.45 34.84 63.31 35.33 64.19 35.83 C73.68 40.16 82.38 40.73 92.72 40.69 C94.27 40.7 95.81 40.7 97.35 40.71 C101.57 40.73 105.79 40.73 110.01 40.73 C114.57 40.73 119.12 40.74 123.68 40.76 C131.57 40.78 139.46 40.79 147.35 40.8 C158.75 40.8 170.16 40.82 181.57 40.85 C200.07 40.89 218.58 40.92 237.09 40.95 C255.06 40.97 273.04 40.99 291.01 41.03 C292.68 41.03 292.68 41.03 294.37 41.04 C299.93 41.05 305.49 41.06 311.06 41.07 C357.17 41.16 403.28 41.24 449.4 41.29 C452.07 45.9 452.77 49.22 452.78 54.52 C452.79 55.23 452.79 55.94 452.8 56.67 C452.81 59.04 452.8 61.41 452.79 63.79 C452.8 65.51 452.8 67.23 452.81 68.95 C452.83 73.67 452.83 78.4 452.82 83.12 C452.82 88.22 452.83 93.32 452.84 98.41 C452.87 108.4 452.87 118.38 452.87 128.37 C452.87 136.49 452.87 144.61 452.88 152.73 C452.88 155.07 452.88 157.41 452.88 159.74 C452.89 161.49 452.89 161.49 452.89 163.27 C452.91 185.29 452.91 207.31 452.9 229.33 C452.89 249.47 452.91 269.6 452.95 289.73 C452.98 310.41 453 331.09 452.99 351.76 C452.99 363.37 452.99 374.98 453.02 386.58 C453.04 396.47 453.04 406.35 453.02 416.24 C453.02 421.28 453.01 426.32 453.03 431.36 C453.05 435.98 453.05 440.6 453.03 445.23 C453.02 446.89 453.03 448.56 453.04 450.22 C453.17 467.21 448.62 481.62 436.84 494.42 C424.53 506.03 410.93 511.41 394.09 511.42 C393.4 511.42 392.71 511.43 391.99 511.43 C389.68 511.43 387.37 511.43 385.07 511.43 C383.39 511.43 381.71 511.43 380.03 511.43 C375.44 511.44 370.84 511.44 366.24 511.44 C361.27 511.44 356.31 511.44 351.34 511.45 C341.62 511.46 331.9 511.46 322.18 511.46 C314.28 511.46 306.37 511.46 298.47 511.47 C276.05 511.47 253.64 511.48 231.23 511.48 C230.02 511.48 228.81 511.48 227.56 511.48 C226.36 511.48 225.15 511.48 223.9 511.48 C204.3 511.48 184.7 511.49 165.1 511.5 C144.96 511.52 124.83 511.52 104.7 511.52 C93.4 511.52 82.1 511.52 70.8 511.53 C61.18 511.54 51.55 511.55 41.93 511.54 C37.03 511.54 32.12 511.54 27.21 511.54 C22.72 511.55 18.22 511.55 13.72 511.54 C12.1 511.54 10.48 511.54 8.86 511.55 C-12.2 511.62 -28.66 507.37 -44.47 492.64 C-58.93 476.74 -59.76 457.49 -59.74 437.19 C-59.74 435.56 -59.74 433.93 -59.74 432.31 C-59.75 427.85 -59.75 423.4 -59.75 418.94 C-59.75 414.13 -59.75 409.32 -59.76 404.51 C-59.77 395.09 -59.77 385.67 -59.77 376.25 C-59.77 368.59 -59.77 360.94 -59.77 353.28 C-59.78 331.55 -59.79 309.82 -59.79 288.09 C-59.79 286.92 -59.79 285.75 -59.79 284.55 C-59.79 283.37 -59.79 282.2 -59.79 280.99 C-59.79 262 -59.8 243.01 -59.81 224.02 C-59.82 204.5 -59.83 184.99 -59.83 165.47 C-59.83 154.52 -59.83 143.57 -59.84 132.62 C-59.85 123.3 -59.85 113.97 -59.85 104.65 C-59.84 99.9 -59.84 95.14 -59.85 90.39 C-59.86 86.03 -59.86 81.67 -59.85 77.31 C-59.85 75.75 -59.85 74.18 -59.86 72.61 C-59.9 59.41 -59.59 46.3 -53.6 34.29 C-53.14 33.35 -52.68 32.41 -52.21 31.43 C-44.08 16.16 -32.36 7.08 -16.04 1.72 C-10.61 0.12 -5.63 -0.1 0 0 Z " fill="#FC0366" transform="translate(168.6015625,653.70703125)"/>
<path d="M0 0 C1.73 -0 3.46 -0.01 5.19 -0.02 C9.92 -0.03 14.65 -0.03 19.38 -0.02 C24.49 -0.01 29.6 -0.03 34.71 -0.04 C44.71 -0.05 54.72 -0.06 64.72 -0.05 C72.85 -0.05 80.98 -0.05 89.12 -0.05 C90.85 -0.05 90.85 -0.05 92.63 -0.05 C94.98 -0.06 97.33 -0.06 99.68 -0.06 C121.74 -0.07 143.8 -0.07 165.85 -0.06 C186.02 -0.05 206.19 -0.06 226.36 -0.08 C247.08 -0.11 267.8 -0.12 288.52 -0.11 C300.15 -0.11 311.78 -0.11 323.41 -0.13 C333.31 -0.14 343.21 -0.14 353.11 -0.12 C358.16 -0.12 363.21 -0.11 368.26 -0.13 C372.88 -0.14 377.51 -0.14 382.13 -0.12 C383.8 -0.12 385.47 -0.12 387.14 -0.13 C403.7 -0.23 417.53 3.69 429.85 15.17 C445.15 31.12 448.29 48.96 448.23 70.19 C448.24 71.87 448.24 73.55 448.24 75.23 C448.25 79.81 448.25 84.4 448.25 88.98 C448.24 93.94 448.25 98.9 448.26 103.86 C448.27 113.56 448.28 123.26 448.27 132.96 C448.27 140.84 448.27 148.73 448.28 156.62 C448.28 157.74 448.28 158.87 448.28 160.02 C448.28 162.31 448.28 164.59 448.28 166.88 C448.29 188.27 448.29 209.67 448.29 231.07 C448.28 250.63 448.29 270.19 448.31 289.75 C448.33 309.86 448.34 329.96 448.33 350.06 C448.33 361.34 448.34 372.62 448.35 383.9 C448.36 393.5 448.36 403.1 448.35 412.7 C448.34 417.6 448.34 422.49 448.36 427.39 C448.37 431.88 448.36 436.36 448.35 440.85 C448.35 442.47 448.35 444.09 448.36 445.7 C448.45 465.63 444.38 481.79 429.97 496.39 C427.78 498.32 425.51 500.09 423.16 501.83 C422.63 502.23 422.1 502.63 421.55 503.04 C408.43 512.19 394.02 510.87 378.72 510.64 C376.42 510.62 374.11 510.6 371.8 510.58 C366.19 510.54 360.58 510.47 354.97 510.39 C354.39 509.24 353.8 508.09 353.2 506.91 C352.41 505.37 351.62 503.84 350.82 502.31 C350.25 501.18 350.25 501.18 349.66 500.02 C341.9 485.11 330.71 476.74 314.97 471.39 C311.5 470.31 308.3 470.26 304.68 470.25 C303.37 470.25 302.07 470.25 300.73 470.24 C299.28 470.24 297.83 470.24 296.38 470.24 C294.84 470.24 293.31 470.24 291.77 470.23 C287.54 470.22 283.31 470.22 279.09 470.22 C274.53 470.21 269.97 470.2 265.41 470.19 C257.51 470.18 249.62 470.17 241.72 470.16 C230.29 470.14 218.87 470.12 207.45 470.1 C188.91 470.06 170.38 470.03 151.84 469.99 C150.73 469.99 149.62 469.99 148.48 469.99 C132.72 469.96 116.96 469.94 101.2 469.92 C100.09 469.91 98.98 469.91 97.84 469.91 C96.73 469.91 95.62 469.91 94.48 469.91 C76.01 469.88 57.54 469.84 39.08 469.8 C27.68 469.78 16.28 469.76 4.88 469.75 C-2.93 469.74 -10.73 469.73 -18.53 469.71 C-23.04 469.7 -27.55 469.69 -32.06 469.69 C-36.18 469.69 -40.3 469.68 -44.42 469.67 C-45.92 469.66 -47.42 469.66 -48.91 469.66 C-50.94 469.67 -52.96 469.66 -54.98 469.65 C-56.67 469.64 -56.67 469.64 -58.4 469.64 C-61.03 469.39 -61.03 469.39 -63.03 467.39 C-64.04 463 -64.16 458.75 -64.17 454.26 C-64.17 453.56 -64.17 452.86 -64.17 452.14 C-64.18 449.8 -64.18 447.46 -64.18 445.13 C-64.19 443.43 -64.19 441.74 -64.2 440.04 C-64.21 435.39 -64.21 430.73 -64.22 426.08 C-64.22 421.06 -64.24 416.04 -64.25 411.02 C-64.27 398.89 -64.29 386.77 -64.3 374.64 C-64.3 371.22 -64.31 367.79 -64.31 364.36 C-64.34 343.08 -64.36 321.8 -64.37 300.52 C-64.37 295.59 -64.38 290.66 -64.38 285.73 C-64.38 284.51 -64.38 283.28 -64.38 282.02 C-64.39 262.19 -64.43 242.35 -64.47 222.52 C-64.51 202.14 -64.53 181.77 -64.54 161.4 C-64.54 149.96 -64.55 138.53 -64.59 127.09 C-64.62 117.35 -64.63 107.61 -64.62 97.87 C-64.61 92.91 -64.61 87.94 -64.64 82.97 C-64.66 78.42 -64.66 73.87 -64.64 69.31 C-64.64 67.67 -64.64 66.03 -64.66 64.39 C-64.82 45.71 -59.33 30.55 -46.39 16.71 C-32.73 3.26 -18.66 -0.07 0 0 Z " fill="#00CCFD" transform="translate(721.0286560058594,113.61231994628906)"/>
<path d="M0 0 C12.75 -0.12 25.47 0.02 38.21 0.49 C49.4 0.9 60.49 1.04 71.69 0.56 C72.79 0.52 73.9 0.47 75.04 0.42 C78.85 0.25 82.65 0.07 86.46 -0.13 C88.47 -0.24 90.49 -0.31 92.5 -0.38 C93.52 -0.42 94.54 -0.47 95.59 -0.52 C98 0 98 0 99.44 2.02 C101.35 5.68 102.83 9.42 104.29 13.28 C104.6 14.09 104.91 14.9 105.23 15.73 C106.22 18.32 107.2 20.91 108.19 23.5 C108.83 25.18 109.47 26.86 110.11 28.54 C111.75 32.82 113.38 37.11 115.01 41.4 C115.99 43.98 116.98 46.56 117.96 49.14 C122.59 61.24 127.14 73.37 131.67 85.5 C137.51 101.14 143.4 116.75 149.57 132.26 C152.19 138.86 154.64 145.48 156.94 152.19 C158.86 157.77 161.1 163.19 163.39 168.62 C165.47 173.59 167.31 178.6 169.06 183.69 C172.64 196.2 172.64 196.2 179 207 C182.41 198.2 185.75 189.38 189.05 180.54 C189.8 178.54 190.55 176.54 191.3 174.55 C194.79 165.27 198.22 155.97 201.64 146.67 C206.75 132.73 211.93 118.82 217.19 104.94 C217.48 104.17 217.77 103.4 218.07 102.61 C220.81 95.37 223.57 88.13 226.33 80.9 C230.86 69.02 235.38 57.16 239.5 45.13 C240.96 40.87 242.5 36.66 244.13 32.46 C244.5 31.53 244.86 30.6 245.23 29.63 C245.93 27.86 246.63 26.09 247.34 24.33 C249.31 19.29 250.62 14.5 251.4 9.13 C252.1 6.63 253.09 5.7 255 4 C255.33 3.34 255.66 2.68 256 2 C266.3 1.74 276.6 1.48 286.91 1.22 C291.69 1.1 296.48 0.98 301.26 0.85 C305.89 0.74 310.52 0.62 315.15 0.5 C316.9 0.46 318.66 0.42 320.41 0.37 C328.8 0.15 337.19 -0.04 345.57 -0.09 C346.77 -0.1 347.97 -0.11 349.2 -0.11 C352 0 352 0 354 1 C354 13.54 354 26.08 354 39 C343.56 39.44 343.56 39.44 340.33 39.57 C334.51 39.82 328.78 40.29 323 41 C320.28 51.56 320.72 62.3 320.74 73.12 C320.74 75.25 320.73 77.39 320.73 79.52 C320.72 85.29 320.72 91.07 320.73 96.84 C320.74 102.89 320.73 108.94 320.73 115 C320.72 125.16 320.73 135.32 320.74 145.48 C320.75 157.21 320.75 168.95 320.74 180.68 C320.73 190.77 320.73 200.86 320.73 210.95 C320.73 216.97 320.73 222.99 320.73 229.01 C320.72 234.67 320.73 240.33 320.74 245.99 C320.74 248.06 320.74 250.13 320.73 252.21 C320.73 255.04 320.74 257.88 320.75 260.72 C320.74 261.53 320.74 262.34 320.73 263.18 C320.77 268.42 320.84 274.16 323 279 C326.17 281.03 329.08 281.42 332.79 281.82 C334.45 282 334.45 282 336.14 282.19 C337.29 282.32 338.44 282.44 339.62 282.56 C341.91 282.81 344.19 283.06 346.48 283.32 C347.49 283.42 348.5 283.53 349.54 283.64 C352 284 352 284 354 285 C354 297.54 354 310.08 354 323 C348.95 322.67 343.89 322.34 338.69 322 C320.98 320.98 303.3 320.8 285.56 320.81 C284.32 320.81 283.07 320.81 281.79 320.81 C260.81 320.81 239.92 321.45 219 323 C217.39 319.77 217.88 316.25 217.9 312.71 C217.9 311.48 217.9 311.48 217.91 310.23 C217.91 307.61 217.92 304.99 217.94 302.38 C217.94 300.6 217.95 298.83 217.95 297.05 C217.96 292.7 217.98 288.35 218 284 C218.8 283.91 219.59 283.83 220.42 283.74 C224.03 283.35 227.64 282.96 231.25 282.56 C232.5 282.43 233.76 282.29 235.05 282.15 C236.26 282.02 237.46 281.89 238.7 281.75 C239.81 281.63 240.92 281.51 242.07 281.39 C245.59 280.93 245.59 280.93 249 280 C250.34 277.32 250.12 275.29 250.12 272.29 C250.12 271.08 250.12 269.86 250.12 268.61 C250.12 267.26 250.12 265.91 250.11 264.55 C250.11 263.14 250.11 261.72 250.11 260.3 C250.11 256.44 250.11 252.58 250.1 248.72 C250.1 244.69 250.09 240.66 250.09 236.63 C250.09 228.99 250.08 221.36 250.07 213.72 C250.06 205.03 250.06 196.34 250.05 187.65 C250.04 169.76 250.02 151.88 250 134 C248.56 137.82 247.13 141.64 245.69 145.46 C245.29 146.54 244.88 147.61 244.47 148.71 C242.24 154.65 240.06 160.6 237.97 166.58 C234.68 175.99 231.17 185.31 227.65 194.63 C225.67 199.9 223.68 205.17 221.7 210.45 C221.31 211.51 220.91 212.57 220.5 213.66 C216.15 225.26 211.86 236.89 207.59 248.52 C204.62 256.61 201.63 264.68 198.6 272.75 C197.13 276.65 195.67 280.55 194.21 284.46 C192.91 287.94 191.61 291.43 190.3 294.91 C189.64 296.7 188.97 298.48 188.31 300.26 C187.33 302.88 186.34 305.51 185.36 308.13 C185.07 308.92 184.78 309.71 184.47 310.52 C182.77 315.07 180.95 319.55 179 324 C175.07 323.98 171.13 323.93 167.2 323.85 C165.21 323.81 163.21 323.8 161.22 323.79 C159.34 323.75 159.34 323.75 157.42 323.71 C156.26 323.69 155.1 323.68 153.91 323.66 C151 323 151 323 149.24 320.79 C148.83 319.87 148.42 318.95 148 318 C147.62 317.14 147.23 316.28 146.84 315.39 C146.47 314.47 146.11 313.55 145.73 312.61 C145.32 311.57 144.9 310.53 144.47 309.46 C144.05 308.38 143.63 307.3 143.19 306.19 C142.77 305.15 142.36 304.12 141.94 303.05 C139.35 296.53 136.85 289.97 134.4 283.4 C131.45 275.51 128.44 267.65 125.41 259.79 C124.43 257.24 123.46 254.69 122.48 252.14 C119.51 244.4 116.49 236.7 113.26 229.07 C110.51 222.39 108 215.62 105.44 208.88 C100.85 196.78 100.85 196.78 96.1 184.76 C94.61 181.01 93.15 177.26 91.69 173.5 C91.39 172.73 91.09 171.96 90.78 171.17 C89.54 167.98 88.3 164.78 87.06 161.59 C86.15 159.22 85.23 156.86 84.31 154.5 C84.02 153.75 83.73 153 83.43 152.22 C81.57 147.44 79.67 142.69 77.7 137.96 C76.64 134.99 76.27 132.14 76 129 C75.34 129 74.68 129 74 129 C73.98 147.25 73.96 165.49 73.95 183.74 C73.94 192.21 73.94 200.68 73.92 209.15 C73.91 216.54 73.91 223.93 73.91 231.31 C73.9 235.22 73.9 239.13 73.89 243.04 C73.89 246.73 73.89 250.41 73.89 254.09 C73.89 256.08 73.88 258.07 73.88 260.06 C73.88 266.13 74.06 271.99 75 278 C82.28 280.76 89.21 281.83 96.94 282.62 C99.18 282.86 101.41 283.11 103.65 283.35 C104.63 283.45 105.61 283.55 106.62 283.66 C109 284 109 284 111 285 C110.67 297.54 110.34 310.08 110 323 C105.71 322.67 101.42 322.34 97 322 C82.95 320.99 68.9 320.89 54.81 320.88 C53.92 320.87 53.03 320.87 52.11 320.87 C42.81 320.85 33.53 320.94 24.24 321.44 C23.18 321.5 23.18 321.5 22.1 321.56 C15.02 321.99 8.01 322.93 1 324 C-0.64 320.72 -0.12 317.09 -0.1 313.49 C-0.1 312.65 -0.09 311.81 -0.09 310.94 C-0.09 308.25 -0.08 305.56 -0.06 302.88 C-0.06 301.05 -0.05 299.23 -0.05 297.41 C-0.04 292.94 -0.02 288.47 0 284 C3.44 282.85 6.38 282.74 10 282.56 C19.64 282.1 19.64 282.1 29 280 C32.66 274.51 32.15 268.32 32.13 261.94 C32.14 260.58 32.14 260.58 32.14 259.2 C32.15 256.18 32.15 253.16 32.15 250.14 C32.15 247.98 32.15 245.81 32.16 243.64 C32.16 237.76 32.17 231.88 32.17 226 C32.17 221.09 32.17 216.17 32.18 211.26 C32.18 199.68 32.19 188.09 32.19 176.51 C32.18 164.56 32.2 152.61 32.21 140.66 C32.22 130.39 32.23 120.13 32.23 109.87 C32.23 103.74 32.23 97.61 32.24 91.49 C32.25 85.72 32.25 79.96 32.24 74.2 C32.24 72.08 32.25 69.97 32.25 67.85 C32.26 64.97 32.25 62.08 32.25 59.19 C32.25 58.36 32.26 57.52 32.26 56.66 C32.23 51.01 31.56 46.12 29 41 C22.65 39.41 15.86 39.66 9.35 39.48 C8.43 39.45 7.52 39.41 6.58 39.38 C5.33 39.34 5.33 39.34 4.06 39.3 C2 39 2 39 0 37 C-0.18 34.2 -0.23 31.51 -0.2 28.71 C-0.19 27.89 -0.19 27.07 -0.19 26.23 C-0.18 23.61 -0.15 20.99 -0.12 18.38 C-0.11 16.6 -0.11 14.83 -0.1 13.05 C-0.08 8.7 -0.04 4.35 0 0 Z " fill="#F9FCFE" transform="translate(189,223)"/>
<path d="M0 0 C1.15 -0.02 2.3 -0.04 3.49 -0.06 C11.04 -0.1 18.37 0.05 24.5 4.94 C27.19 8.76 28.57 11.5 29.06 16.19 C30.01 22.2 33.49 24.74 38.14 28.35 C43.63 31.57 48.72 31.5 54.97 31.4 C56.28 31.41 57.59 31.43 58.95 31.44 C62.52 31.48 66.09 31.46 69.66 31.43 C73.41 31.4 77.16 31.42 80.92 31.43 C87.22 31.44 93.52 31.42 99.82 31.37 C107.08 31.31 114.34 31.32 121.61 31.36 C128.62 31.4 135.64 31.39 142.65 31.36 C145.63 31.35 148.6 31.35 151.57 31.37 C155.73 31.39 159.89 31.35 164.04 31.3 C165.27 31.32 166.49 31.33 167.75 31.35 C175.26 31.19 179.32 29.7 184.8 24.51 C187.2 21.07 187.11 17.89 187.17 13.8 C187.52 9.48 189.13 8.08 192.38 5.25 C200.51 0.16 208.24 0.04 217.62 0 C218.72 -0.02 219.81 -0.04 220.94 -0.06 C228.32 -0.1 235.43 0.19 241.46 4.87 C244.37 8.97 245.76 12.36 246.75 17.31 C247.95 22.93 249.71 25.02 254.19 28.43 C269.84 41.45 272.47 62.62 275.94 81.31 C276.44 83.98 276.95 86.65 277.46 89.32 C278.27 93.53 279.07 97.74 279.86 101.95 C281.72 111.83 283.63 121.7 285.58 131.56 C286.49 136.18 287.4 140.81 288.3 145.43 C289.03 149.16 289.76 152.89 290.5 156.61 C291.2 160.13 291.89 163.65 292.57 167.18 C292.94 169.07 293.32 170.96 293.7 172.85 C296.27 186.36 297.58 202.33 289.71 214.47 C282.28 224.34 274.41 230.85 262.38 234.25 C250.5 235.62 241.11 232.94 231.5 225.94 C219.18 215.58 211.83 198.58 204.44 184.59 C203.75 183.29 203.06 181.99 202.38 180.69 C201.87 179.73 201.87 179.73 201.35 178.75 C198.92 174.19 196.32 169.75 193.63 165.34 C189.38 158.25 189.38 158.25 189.38 155.25 C188.73 155.72 188.09 156.19 187.43 156.68 C177.19 164.05 168.21 167.6 155.38 166.25 C147.92 164.12 138.28 160.27 134.2 153.21 C132.51 150.43 131.14 149.01 128.38 147.25 C122.68 145.98 116.72 146.31 110.92 146.48 C108.12 146.56 105.32 146.58 102.52 146.6 C100.73 146.62 98.95 146.65 97.17 146.68 C96.33 146.69 95.5 146.7 94.63 146.7 C90.35 146.7 90.35 146.7 86.72 148.66 C85.22 150.44 83.77 152.25 82.31 154.06 C76.25 161.02 68.11 165.68 58.85 166.46 C47.04 166.88 38.95 162.89 29.38 156.25 C25.83 159.4 23.79 162.88 21.69 167.06 C18.91 172.44 15.98 177.66 12.81 182.81 C9.96 187.47 7.38 192.14 5 197.06 C-9.79 227.16 -9.79 227.16 -24.44 232.75 C-33.86 235.44 -43.65 235.45 -52.62 231.25 C-64.56 224.23 -72.82 216.94 -76.62 203.25 C-79.48 191.2 -77.19 178.96 -74.75 167.06 C-74.44 165.48 -74.12 163.9 -73.81 162.32 C-73.13 158.85 -72.44 155.39 -71.75 151.93 C-70.54 145.85 -69.37 139.77 -68.21 133.68 C-66.32 123.73 -64.41 113.79 -62.48 103.85 C-61.28 97.67 -60.1 91.49 -58.92 85.3 C-58.23 81.64 -57.52 77.98 -56.81 74.31 C-56.48 72.63 -56.16 70.96 -55.85 69.28 C-53.35 55.95 -49.81 44.31 -41.62 33.25 C-40.99 32.36 -40.35 31.48 -39.69 30.56 C-37.62 28.25 -37.62 28.25 -35.89 27.04 C-32.67 24.74 -30.9 23.31 -29.87 19.38 C-29.58 17.26 -29.31 15.15 -29.05 13.03 C-28.48 9.3 -27.55 7.65 -24.62 5.25 C-16.26 0.82 -9.38 0.04 0 0 Z " fill="#000002" transform="translate(803.625,249.75)"/>
<path d="M0 0 C0 0.66 0 1.32 0 2 C0.66 2 1.32 2 2 2 C2.07 0.19 2.07 0.19 2.15 -1.65 C2.22 -3.22 2.3 -4.8 2.38 -6.38 C2.41 -7.17 2.44 -7.96 2.47 -8.78 C2.77 -14.77 2.77 -14.77 5 -17 C7.79 -17.19 10.47 -17.26 13.25 -17.23 C14.07 -17.23 14.89 -17.23 15.73 -17.23 C17.45 -17.23 19.18 -17.22 20.9 -17.21 C23.56 -17.19 26.21 -17.19 28.86 -17.19 C30.53 -17.18 32.21 -17.17 33.88 -17.17 C35.08 -17.17 35.08 -17.17 36.3 -17.16 C41.88 -17.12 41.88 -17.12 43 -16 C43.1 -13.81 43.13 -11.63 43.12 -9.44 C43.13 -8.24 43.13 -7.04 43.13 -5.81 C43.07 -1.88 42.79 2.03 42.51 5.95 C41.9 15.19 41.8 24.43 41.74 33.7 C41.72 36.72 41.69 39.74 41.66 42.76 C41.59 50.25 41.53 57.73 41.47 65.22 C41.42 71.59 41.37 77.96 41.31 84.33 C41.28 87.31 41.26 90.29 41.24 93.27 C41.22 95.08 41.21 96.89 41.19 98.7 C41.18 99.94 41.18 99.94 41.18 101.21 C41.11 106.89 41.11 106.89 40 108 C37.44 108.11 34.91 108.16 32.35 108.17 C31.58 108.17 30.81 108.17 30.02 108.18 C28.39 108.18 26.76 108.19 25.14 108.19 C22.64 108.19 20.15 108.21 17.66 108.22 C16.08 108.23 14.49 108.23 12.91 108.23 C12.17 108.24 11.42 108.24 10.65 108.25 C6.89 108.24 5.21 108.14 2 106 C1.3 103.54 1.3 103.54 0.82 100.42 C0.64 99.27 0.45 98.12 0.26 96.93 C0.07 95.7 -0.12 94.46 -0.31 93.19 C-4.5 68.04 -10.1 44.86 -31.06 28.38 C-36.51 24.74 -42.37 22.68 -48.56 20.69 C-49.35 20.43 -50.14 20.18 -50.96 19.92 C-67.59 14.86 -86.29 15.06 -101.82 23.06 C-123.41 34.76 -134.11 56.1 -141.04 78.81 C-147.46 101.08 -149.17 123.24 -149.19 146.31 C-149.19 147.12 -149.19 147.92 -149.19 148.75 C-149.19 163.51 -148.8 178.17 -146.31 192.75 C-146.14 193.76 -145.97 194.78 -145.79 195.82 C-144 205.81 -141.35 215.42 -138 225 C-137.65 226.02 -137.65 226.02 -137.29 227.05 C-134.45 235.03 -130.96 240.93 -124.95 246.91 C-123 249 -123 249 -122.05 251.15 C-120.56 253.77 -118.79 254.02 -116 255 C-114.62 255.9 -113.27 256.84 -111.94 257.81 C-95.29 269.18 -73.51 271.33 -53.87 268.72 C-45.58 267.07 -37.87 262.81 -31 258 C-29.79 255.57 -29.87 254.01 -29.85 251.3 C-29.85 250.32 -29.84 249.34 -29.84 248.33 C-29.83 247.27 -29.83 246.2 -29.83 245.11 C-29.83 244.01 -29.83 242.91 -29.82 241.78 C-29.82 239.44 -29.81 237.11 -29.81 234.77 C-29.81 231.24 -29.79 227.71 -29.78 224.17 C-29.68 207.98 -29.68 207.98 -32 192 C-39.86 188.8 -47.01 188.53 -55.44 188.44 C-57.96 188.4 -60.48 188.36 -63 188.31 C-64.1 188.3 -65.21 188.28 -66.35 188.27 C-69 188 -69 188 -71 186 C-71.19 183.21 -71.26 180.53 -71.23 177.75 C-71.23 176.93 -71.23 176.11 -71.23 175.27 C-71.23 173.55 -71.22 171.82 -71.21 170.1 C-71.19 167.44 -71.19 164.79 -71.19 162.14 C-71.18 160.47 -71.17 158.79 -71.17 157.12 C-71.17 156.32 -71.17 155.53 -71.16 154.7 C-71.12 149.12 -71.12 149.12 -70 148 C-68.33 147.9 -66.66 147.87 -65 147.87 C-63.91 147.86 -62.83 147.86 -61.71 147.85 C-60.51 147.85 -59.31 147.85 -58.08 147.85 C-56.82 147.85 -55.57 147.85 -54.27 147.84 C-50.82 147.84 -47.37 147.83 -43.92 147.83 C-41.04 147.83 -38.16 147.83 -35.28 147.82 C-28.49 147.82 -21.71 147.81 -14.92 147.81 C-7.91 147.82 -0.9 147.8 6.11 147.79 C12.13 147.78 18.14 147.77 24.15 147.77 C27.74 147.77 31.33 147.77 34.93 147.76 C38.93 147.75 42.94 147.75 46.95 147.76 C48.14 147.75 49.34 147.75 50.58 147.74 C52.21 147.75 52.21 147.75 53.87 147.75 C54.82 147.75 55.77 147.75 56.74 147.75 C59 148 59 148 61 150 C61.18 152.72 61.23 155.35 61.2 158.07 C61.19 159.26 61.19 159.26 61.19 160.48 C61.18 163.03 61.15 165.58 61.12 168.12 C61.11 169.85 61.11 171.58 61.1 173.3 C61.08 177.53 61.04 181.77 61 186 C56.72 188.11 52.86 188.24 48.19 188.12 C47.49 188.12 46.8 188.11 46.09 188.1 C44.39 188.07 42.7 188.04 41 188 C41 188.59 40.99 189.18 40.99 189.79 C40.88 204.17 40.78 218.55 40.66 232.93 C40.61 239.88 40.55 246.84 40.5 253.79 C40.46 260.5 40.4 267.2 40.35 273.9 C40.33 276.47 40.31 279.03 40.29 281.6 C40.27 285.17 40.24 288.75 40.21 292.33 C40.2 293.4 40.19 294.47 40.19 295.58 C40.18 296.55 40.17 297.52 40.16 298.51 C40.15 299.36 40.15 300.21 40.14 301.08 C40 303 40 303 39 304 C36.33 304.09 33.69 304.12 31.03 304.1 C30.23 304.1 29.43 304.09 28.61 304.09 C26.05 304.09 23.5 304.08 20.94 304.06 C19.21 304.06 17.48 304.05 15.75 304.05 C11.5 304.04 7.25 304.02 3 304 C1.67 300.14 0.71 296.7 0.38 292.62 C0.3 291.75 0.23 290.88 0.15 289.98 C0.1 289.32 0.05 288.67 0 288 C-3.9 288 -5.37 289.36 -8.62 291.5 C-41.86 312.6 -78.38 312.66 -116 305 C-137.09 300.21 -160.81 288.8 -175.52 272.57 C-177.12 270.87 -178.85 269.51 -180.69 268.06 C-206.99 245.29 -217.14 207.07 -221 174 C-221.13 172.93 -221.26 171.85 -221.4 170.75 C-223.19 152.59 -222.41 134.05 -220 116 C-219.91 115.27 -219.82 114.54 -219.72 113.78 C-218.49 104.15 -216.3 94.9 -213.62 85.56 C-213.21 84.09 -213.21 84.09 -212.78 82.58 C-210.74 75.76 -208.09 69.41 -205 63 C-204.69 62.34 -204.38 61.68 -204.06 61 C-192.84 37.37 -176.12 15.39 -154 1 C-153.11 0.4 -152.22 -0.2 -151.3 -0.82 C-107.34 -29.79 -43.01 -32.22 0 0 Z " fill="#FAFDFF" transform="translate(980,781)"/>
<path d="M0 0 C1.89 0.01 1.89 0.01 3.81 0.01 C4.5 0.01 5.19 0.01 5.91 0.01 C8.2 0.01 10.5 0.03 12.79 0.05 C14.38 0.05 15.97 0.05 17.56 0.05 C21.74 0.06 25.93 0.08 30.11 0.1 C34.38 0.12 38.65 0.13 42.92 0.14 C51.3 0.16 59.68 0.2 68.06 0.24 C71.69 8.58 75.18 16.92 78.36 25.44 C78.93 26.97 78.93 26.97 79.52 28.53 C80.34 30.72 81.16 32.9 81.98 35.08 C83.74 39.79 85.51 44.49 87.28 49.19 C88.19 51.63 89.11 54.07 90.02 56.51 C94.47 68.32 98.95 80.13 103.44 91.93 C105.01 96.06 106.59 100.2 108.16 104.33 C108.55 105.38 108.95 106.42 109.36 107.49 C112.84 116.64 116.31 125.8 119.78 134.96 C123.46 144.67 127.15 154.39 130.84 164.1 C133.24 170.43 135.64 176.76 138.04 183.09 C140.24 188.9 142.44 194.71 144.65 200.52 C145.81 203.57 146.97 206.62 148.12 209.68 C149.39 213.04 150.67 216.4 151.95 219.76 C152.51 221.25 152.51 221.25 153.08 222.77 C154.77 227.17 156.41 231.3 159.06 235.24 C166.93 214.79 174.68 194.3 182.28 173.75 C186.3 162.9 190.34 152.07 194.38 141.24 C196.02 136.84 197.66 132.44 199.3 128.03 C199.7 126.95 200.11 125.87 200.52 124.75 C203.09 117.87 205.65 110.99 208.2 104.1 C215.3 85.01 222.42 65.93 229.56 46.87 C230.12 45.39 230.12 45.39 230.68 43.88 C232.79 38.26 234.9 32.65 237.01 27.04 C238.12 24.1 239.21 21.17 240.3 18.23 C241.02 16.3 241.75 14.38 242.47 12.45 C242.8 11.55 243.13 10.66 243.48 9.73 C243.79 8.91 244.1 8.08 244.42 7.23 C244.69 6.51 244.96 5.78 245.24 5.04 C246.06 3.24 246.06 3.24 248.06 1.24 C250.92 0.96 250.92 0.96 254.61 0.91 C255.28 0.89 255.95 0.88 256.64 0.87 C258.87 0.83 261.09 0.81 263.32 0.79 C264.86 0.77 266.4 0.75 267.94 0.73 C271.18 0.68 274.41 0.64 277.64 0.61 C281.79 0.56 285.94 0.51 290.1 0.45 C293.28 0.4 296.46 0.36 299.65 0.32 C301.18 0.3 302.71 0.28 304.24 0.26 C306.38 0.23 308.51 0.21 310.65 0.19 C311.87 0.17 313.08 0.16 314.34 0.14 C317.06 0.24 317.06 0.24 318.06 1.24 C318.21 3.91 318.11 6.56 318.06 9.24 C317.08 9.28 317.08 9.28 316.08 9.32 C307.5 9.85 298.99 11.27 292 16.55 C286.01 24.86 285.91 33.84 285.93 43.67 C285.93 44.59 285.93 45.51 285.92 46.45 C285.92 49.51 285.92 52.57 285.92 55.63 C285.92 57.83 285.91 60.03 285.91 62.23 C285.9 68.19 285.9 74.16 285.9 80.12 C285.9 83.85 285.89 87.58 285.89 91.31 C285.88 103.66 285.88 116.01 285.88 128.36 C285.88 129.02 285.88 129.69 285.88 130.37 C285.88 131.04 285.88 131.7 285.88 132.39 C285.88 143.17 285.87 153.95 285.86 164.73 C285.84 175.82 285.83 186.91 285.84 198 C285.84 204.22 285.83 210.43 285.82 216.65 C285.81 222.5 285.81 228.35 285.82 234.2 C285.82 236.34 285.82 238.49 285.81 240.63 C284.8 259.6 284.8 259.6 292.06 276.24 C297.15 279.38 302.07 280.06 307.88 280.8 C309.59 281.03 311.31 281.26 313.02 281.49 C313.77 281.59 314.53 281.69 315.3 281.79 C316.17 282.01 316.17 282.01 317.06 282.24 C318.54 285.2 318.12 287.98 318.06 291.24 C304.52 291.26 290.98 291.28 277.44 291.29 C271.15 291.3 264.86 291.3 258.57 291.32 C252.51 291.33 246.45 291.33 240.39 291.34 C238.07 291.34 235.75 291.34 233.43 291.35 C230.19 291.35 226.96 291.35 223.72 291.35 C222.76 291.36 221.79 291.36 220.79 291.36 C219.91 291.36 219.04 291.36 218.13 291.36 C216.98 291.36 216.98 291.36 215.81 291.36 C214.06 291.24 214.06 291.24 213.06 290.24 C213.38 286.74 213.38 286.74 214.06 283.24 C217.63 281.46 221.92 281.54 225.86 281.17 C231.78 280.51 236.92 279.26 241.38 275.05 C245.2 268.67 245.36 261.86 245.34 254.62 C245.35 253.22 245.35 253.22 245.36 251.78 C245.38 248.65 245.38 245.53 245.38 242.4 C245.39 240.16 245.4 237.91 245.41 235.66 C245.44 229.57 245.46 223.48 245.47 217.39 C245.48 211.02 245.51 204.65 245.54 198.28 C245.58 187.6 245.61 176.91 245.64 166.22 C245.67 155.22 245.71 144.22 245.75 133.21 C245.75 132.53 245.75 131.86 245.75 131.16 C245.77 127.75 245.78 124.34 245.79 120.94 C245.89 92.7 245.98 64.47 246.06 36.24 C245.4 36.24 244.74 36.24 244.06 36.24 C243.89 36.85 243.71 37.47 243.53 38.1 C241.79 44.02 239.84 49.81 237.69 55.59 C237.36 56.47 237.04 57.34 236.7 58.24 C235.64 61.12 234.57 63.99 233.5 66.87 C232.74 68.92 231.98 70.97 231.22 73.02 C225.57 88.26 219.86 103.48 214.14 118.69 C205.5 141.7 196.96 164.76 188.44 187.82 C188.05 188.87 187.66 189.92 187.26 191 C186.45 193.2 185.64 195.4 184.82 197.59 C178.92 213.55 172.98 229.5 167 245.43 C166.26 247.41 165.51 249.4 164.77 251.39 C163.29 255.32 161.81 259.26 160.33 263.2 C156.57 273.21 152.82 283.22 149.06 293.24 C142.67 293.6 142.67 293.6 140.32 292.19 C138.46 289.29 137.26 286.19 136.04 282.98 C135.75 282.23 135.46 281.48 135.16 280.71 C134.19 278.18 133.22 275.65 132.25 273.12 C131.55 271.3 130.85 269.49 130.15 267.68 C128.62 263.7 127.09 259.72 125.56 255.74 C122.94 248.91 120.31 242.1 117.68 235.28 C116.75 232.87 115.82 230.46 114.89 228.06 C114.42 226.85 113.96 225.65 113.48 224.41 C112.06 220.72 110.63 217.03 109.21 213.33 C103.79 199.29 98.36 185.26 92.88 171.24 C87.15 156.58 81.44 141.92 75.75 127.24 C75.36 126.23 74.96 125.21 74.56 124.16 C72.55 118.99 70.55 113.81 68.54 108.63 C64.71 98.75 60.88 88.87 57.05 78.98 C55.48 74.94 53.91 70.89 52.34 66.84 C51.61 64.97 50.89 63.1 50.16 61.23 C48.44 56.78 46.71 52.33 45 47.87 C44.68 47.03 44.35 46.19 44.02 45.32 C43.41 43.74 42.8 42.16 42.2 40.58 C41.06 37.15 41.06 37.15 39.06 34.24 C38.97 63.22 38.9 92.2 38.86 121.18 C38.85 123.87 38.85 126.55 38.84 129.23 C38.84 130.23 38.84 130.23 38.84 131.25 C38.82 142.02 38.79 152.79 38.76 163.56 C38.72 174.63 38.7 185.69 38.69 196.75 C38.68 202.96 38.67 209.17 38.64 215.38 C38.61 221.23 38.61 227.08 38.61 232.94 C38.61 235.08 38.6 237.22 38.59 239.36 C37.95 257.24 37.95 257.24 44.68 273.31 C51.67 280.24 61.73 280.75 71 281.71 C72.52 281.97 72.52 281.97 74.06 282.24 C75.54 285.2 75.12 287.98 75.06 291.24 C64.78 291.26 54.5 291.28 44.21 291.29 C39.44 291.3 34.67 291.3 29.89 291.32 C25.29 291.33 20.68 291.33 16.08 291.34 C14.32 291.34 12.56 291.34 10.8 291.35 C8.34 291.35 5.89 291.35 3.43 291.35 C2.69 291.36 1.96 291.36 1.2 291.36 C-3.82 291.35 -3.82 291.35 -4.94 290.24 C-5.12 287.3 -5.12 287.3 -4.94 284.24 C-2.2 281.5 -0.19 281.77 3.63 281.37 C10.95 280.4 16.99 279.08 22.5 273.99 C27.52 265.16 27.22 253.81 27.19 243.91 C27.19 243.03 27.19 242.15 27.2 241.24 C27.2 238.31 27.2 235.38 27.19 232.45 C27.19 230.34 27.2 228.23 27.2 226.12 C27.2 220.4 27.2 214.69 27.2 208.97 C27.2 202.98 27.2 196.99 27.2 190.99 C27.2 180.93 27.2 170.87 27.19 160.81 C27.19 149.19 27.19 137.57 27.2 125.95 C27.2 115.96 27.2 105.97 27.2 95.98 C27.2 90.02 27.2 84.06 27.2 78.1 C27.2 72.49 27.2 66.89 27.2 61.28 C27.19 59.23 27.19 57.18 27.2 55.13 C28.36 33.67 28.36 33.67 19.94 14.87 C13.1 11 5.97 9.91 -1.78 9.45 C-3.94 9.24 -3.94 9.24 -4.94 8.24 C-5.12 5.3 -5.12 5.3 -4.94 2.24 C-2.94 0.24 -2.94 0.24 0 0 Z " fill="#00FDFD" transform="translate(208.93594360351563,237.75949096679688)"/>
<path d="M0 0 C4.34 3.25 7.35 4.62 12.8 4.9 C16.42 1.12 16.91 -3.27 17.86 -8.23 C18.18 -9.86 18.5 -11.48 18.83 -13.11 C18.97 -13.83 19.11 -14.55 19.25 -15.29 C19.8 -17.1 19.8 -17.1 21.8 -19.1 C25.36 -19.29 25.36 -19.29 28.8 -19.1 C29.8 -18.1 29.8 -18.1 29.83 -14.85 C29.8 -13.36 29.76 -11.88 29.71 -10.39 C29.68 -9.17 29.68 -9.17 29.65 -7.92 C29.6 -6.13 29.55 -4.34 29.5 -2.56 C29.36 2.29 29.24 7.13 29.12 11.97 C29.09 13 29.07 14.03 29.04 15.09 C28.71 27.75 28.47 40.42 28.23 53.09 C28.19 55.37 28.14 57.66 28.1 59.94 C28 65.26 27.9 70.58 27.8 75.9 C20.05 76.02 20.05 76.02 17.8 74.9 C17.18 72.7 16.67 70.46 16.21 68.22 C16.07 67.54 15.92 66.86 15.78 66.16 C15.32 63.97 14.87 61.78 14.42 59.59 C10.58 40.79 5.58 24.77 -7.2 9.9 C-7.77 9.22 -8.34 8.54 -8.93 7.85 C-21.77 -6.22 -45.57 -15.06 -64.2 -16.1 C-85.26 -16.93 -104.4 -11.81 -120.52 2.34 C-122.1 3.84 -123.66 5.36 -125.2 6.9 C-126.14 7.84 -126.14 7.84 -127.1 8.79 C-132.43 14.51 -136.38 21.12 -140.2 27.9 C-140.54 28.49 -140.88 29.08 -141.22 29.69 C-149.31 44.18 -154.2 59.94 -157.52 76.15 C-157.66 76.87 -157.81 77.58 -157.96 78.32 C-161.12 95.12 -161.58 111.85 -161.52 128.9 C-161.51 130.03 -161.51 131.16 -161.51 132.32 C-161.46 148.66 -161.3 164.8 -158.2 180.9 C-157.91 182.46 -157.91 182.46 -157.6 184.05 C-152.28 210.78 -142.76 236.32 -119.75 252.64 C-98.65 266.7 -72.17 270.11 -47.34 266.28 C-35.84 263.97 -23.79 258.21 -15.4 249.93 C-11.53 243.37 -11.91 235.63 -11.94 228.27 C-11.94 226.61 -11.94 226.61 -11.93 224.91 C-11.93 222.58 -11.94 220.24 -11.94 217.9 C-11.95 214.37 -11.94 210.84 -11.93 207.31 C-10.92 184.66 -10.92 184.66 -18.2 163.9 C-25.12 157.67 -34.18 156.73 -43.08 155.84 C-50.95 155.03 -50.95 155.03 -53.2 153.9 C-52.87 151.59 -52.54 149.28 -52.2 146.9 C-45.78 145.7 -39.54 145.88 -33.03 146.05 C-30.58 146.11 -28.13 146.16 -25.68 146.22 C-24.41 146.25 -23.14 146.28 -21.82 146.31 C-2 146.77 17.75 147.09 37.56 146.22 C39.41 146.14 39.41 146.14 41.3 146.05 C42.87 145.97 42.87 145.97 44.48 145.89 C46.8 145.9 46.8 145.9 47.8 146.9 C47.94 149.57 47.84 152.22 47.8 154.9 C46.8 155.17 46.8 155.17 45.78 155.45 C38.78 157.2 38.78 157.2 32.8 160.9 C29.26 167.6 28.21 173.73 28.25 181.21 C28.23 182.68 28.23 182.68 28.22 184.17 C28.19 187.37 28.19 190.56 28.19 193.75 C28.17 195.98 28.15 198.21 28.14 200.43 C28.09 206.27 28.07 212.1 28.06 217.94 C28.04 223.91 28 229.87 27.96 235.84 C27.88 247.53 27.83 259.21 27.8 270.9 C20.05 271.02 20.05 271.02 17.8 269.9 C17.26 267.69 16.82 265.45 16.42 263.21 C14.95 255.88 14.95 255.88 10.8 249.9 C8.15 248.75 7.1 248.78 4.39 249.83 C-0.44 252.57 -4.98 255.41 -9.39 258.77 C-34.56 277.54 -65.72 279.76 -95.97 275.59 C-120.53 271.78 -140.97 262.56 -160.2 246.9 C-160.9 246.34 -161.6 245.78 -162.33 245.21 C-182.62 228.58 -194.13 201.95 -199.95 176.96 C-200.15 176.12 -200.35 175.27 -200.56 174.4 C-203.68 160.18 -204.56 145.97 -204.45 131.46 C-204.45 130.7 -204.45 129.93 -204.44 129.14 C-204.19 84.55 -190.42 40.58 -158.24 8.51 C-142.11 -6.93 -121.87 -17.11 -100.2 -22.1 C-99.15 -22.35 -99.15 -22.35 -98.07 -22.59 C-62.56 -30.39 -28.63 -22.06 0 0 Z " fill="#00FDFD" transform="translate(977.204345703125,798.101806640625)"/>
<path d="M0 0 C4.53 1.71 8.15 3.33 11.71 6.64 C13.94 12.79 13.37 19.03 12.51 25.43 C11.8 30.98 11.28 35.02 14.33 39.89 C19.89 46.88 26.97 54.09 35.96 56.08 C41.13 56.16 46.04 55.72 50.96 54.08 C54.16 53.38 56.79 53.16 59.96 54.08 C62.75 57.03 64.3 60.4 65.96 64.08 C66.38 64.97 66.81 65.85 67.25 66.76 C68.86 70.38 69.92 73.36 70.14 77.33 C67.42 83.65 60.84 86.94 55.07 90.2 C51.19 93.66 49.27 97.65 48.61 102.81 C48.49 105.8 48.51 108.77 48.58 111.77 C48.58 112.79 48.58 113.81 48.59 114.86 C48.64 119.77 48.81 123.58 50.96 128.08 C52.59 129.76 52.59 129.76 54.58 131.08 C55.29 131.59 56 132.09 56.73 132.61 C58.87 134.02 61.05 135.3 63.27 136.58 C66.96 138.87 68.7 140.8 69.96 145.08 C70.09 153 66.35 160.71 61.54 166.92 C58.24 169.35 53.85 168.41 49.96 168.08 C46.63 167.56 43.33 166.98 40.04 166.32 C33.86 165.84 29.63 168.64 24.98 172.32 C19.06 177.48 13.94 183.33 11.96 191.08 C11.79 195.56 12.79 199.49 14.02 203.77 C14.99 207.2 15.49 209.56 14.96 213.08 C10.72 218.87 3.63 221.86 -3.04 224.08 C-7.49 224.5 -10.82 224.41 -14.51 221.68 C-17.28 218.79 -19.17 215.31 -21.14 211.84 C-23.75 208.07 -26.42 204.71 -31.07 203.6 C-33.33 203.36 -35.58 203.23 -37.86 203.14 C-45.1 202.6 -50.88 201.68 -56.04 196.08 C-58.62 191.52 -58.4 187.04 -57.04 182.08 C-54.5 177.09 -52.17 175.18 -47.04 173.08 C-44.18 172.56 -41.32 172.35 -38.42 172.14 C-25.1 170.88 -15.06 166.61 -4.04 159.08 C-3.36 158.63 -2.68 158.18 -1.98 157.72 C7.71 150.47 15.11 135.87 16.96 124.08 C18.26 104.18 13.77 86.63 1.21 70.71 C-8.28 59.94 -18.42 54.83 -32.16 51.64 C-44.32 48.8 -44.32 48.8 -49.04 44.08 C-51.42 39.52 -51.21 36.03 -50.04 31.08 C-48.12 26.95 -45.93 24.46 -42.04 22.08 C-40.12 21.58 -38.18 21.13 -36.23 20.71 C-29.25 19.09 -24.43 16.67 -20.4 10.61 C-19.39 8.87 -18.39 7.12 -17.4 5.36 C-13.1 -1.88 -7.47 -2.25 0 0 Z " fill="#000002" transform="translate(407.04296875,790.91796875)"/>
<path d="M0 0 C2.25 2.84 2.99 4.92 3.62 8.5 C3 12 3 12 0.5 14.81 C-3.87 17.53 -8.67 17.77 -13.68 18.28 C-30.25 19.98 -45.56 26.89 -58 38 C-58.75 38.65 -59.49 39.31 -60.26 39.98 C-74.51 53.26 -83.34 73.19 -84.39 92.58 C-85.04 113.75 -78.73 129.3 -69.48 147.91 C-65.58 155.76 -62.11 163.73 -58.86 171.86 C-57.99 174.02 -57.1 176.16 -56.21 178.31 C-49.47 194.77 -43.54 212.2 -42 230 C-38.29 231.24 -34.8 231.21 -30.94 231.28 C-29.76 231.31 -29.76 231.31 -28.55 231.34 C-26.03 231.4 -23.52 231.45 -21 231.5 C-17.69 231.57 -14.37 231.64 -11.06 231.72 C-10.3 231.73 -9.54 231.75 -8.75 231.76 C-5.59 231.83 -3.02 231.99 0 233 C2.07 235.69 2.94 237.65 3.5 241 C2.8 245.18 1.32 246.41 -2 249 C-4.91 249.7 -7.72 249.65 -10.7 249.59 C-11.54 249.59 -12.38 249.59 -13.24 249.59 C-15.01 249.59 -16.78 249.57 -18.55 249.54 C-21.23 249.5 -23.91 249.5 -26.59 249.51 C-28.32 249.5 -30.04 249.48 -31.77 249.47 C-32.56 249.47 -33.35 249.47 -34.16 249.47 C-42.12 249.3 -48.88 247.08 -55.49 242.67 C-60.09 237.58 -60.79 230.57 -61.88 224.06 C-64.86 207.51 -70.55 192.48 -77 177 C-77.37 176.12 -77.73 175.23 -78.11 174.32 C-81.88 165.25 -85.75 156.29 -90.25 147.56 C-103.92 120.91 -106.36 93.34 -97.38 64.94 C-93.09 52.17 -85.9 41.06 -77 31 C-76.47 30.4 -75.95 29.8 -75.4 29.19 C-58.99 11.77 -24.73 -8.24 0 0 Z " fill="#000002" transform="translate(368,782)"/>
<path d="M0 0 C1.54 1.5 1.54 1.5 3.06 3.44 C5.82 6.97 5.82 6.97 9.99 8.27 C15.34 8.52 15.34 8.52 19.81 5.69 C20.53 4.8 21.26 3.91 22 3 C23.94 1.12 23.94 1.12 26 0 C29.35 0.07 31.24 0.39 33.88 2.5 C35.33 5.73 35.03 8.32 34.93 11.82 C35.03 14.96 35.98 16.63 38 19 C42.47 22.93 47.38 22.29 53 22 C53.7 23.24 54.39 24.49 55.06 25.75 C55.45 26.45 55.83 27.14 56.22 27.86 C57.15 30.42 57.02 31.5 56 34 C54.33 35.67 52.67 37.33 51 39 C49.18 42.15 49 43.89 49.06 47.56 C50.19 51.7 51.57 52.58 55 55 C57.13 57.81 57 59.01 56.75 62.62 C56 66 56 66 54 68 C52.12 68.05 52.12 68.05 49.88 67.88 C44.89 67.8 40.77 68.55 37 72 C35.15 76.05 34.96 79.98 35.12 84.38 C35 87 35 87 33.25 88.81 C29.38 90.86 29.38 90.86 27 91 C23.79 89.55 22.16 88.22 20.06 85.38 C18.18 82.82 18.18 82.82 15.31 82 C10.91 82 6.88 82.85 3 85 C1.81 86.97 1.81 86.97 1 89 C-0.69 90.5 -0.69 90.5 -3 91 C-6.32 89.69 -9.37 88.25 -11 85 C-10.92 83.6 -10.81 82.21 -10.69 80.81 C-10.62 76.02 -12.12 73.78 -15.3 70.31 C-17.24 68.82 -18.58 68.33 -21 68 C-22.45 68.31 -22.45 68.31 -23.94 68.62 C-27 69 -27 69 -29.81 68 C-32 66 -32 66 -33.31 62.88 C-32.94 58.31 -32.14 57.79 -29 54.69 C-25.89 51.51 -25.89 51.51 -24.44 47.41 C-24.62 43.65 -24.96 41.04 -27.69 38.32 C-28.96 37.37 -30.25 36.43 -31.54 35.5 C-33 34 -33 34 -33.31 31.96 C-32.9 28.38 -32 26 -30 23 C-27.39 22.63 -27.39 22.63 -24.25 22.56 C-18.85 22.21 -15.78 21.98 -12 18 C-11.08 13.91 -10.94 10.84 -11.25 6.69 C-11.17 5.8 -11.08 4.91 -11 4 C-7.58 1.32 -4.37 0 0 0 Z " fill="#000002" transform="translate(353,857)"/>
<path d="M0 0 C6.6 6.21 10.24 14.81 11.12 23.7 C11.3 34.45 10.07 43.72 2.38 51.94 C-4.13 57.71 -10.97 60.44 -19.56 61.25 C-29.35 60.42 -39.42 57.34 -46.14 49.83 C-52.25 41.24 -53.22 32.27 -52.25 21.94 C-50.1 12.56 -45.34 4.26 -37.14 -1.03 C-25.59 -7.32 -11.15 -7.08 0 0 Z " fill="#F821FC" transform="translate(526.25,611.0625)"/>
<path d="M0 0 C4.37 -0.05 8.75 -0.09 13.12 -0.11 C14.61 -0.12 16.09 -0.13 17.57 -0.15 C40.69 -0.42 40.69 -0.42 48 6 C51.3 10.73 51.91 15.4 51 21 C48.77 25.37 46.1 28.3 42 31 C39.19 31.75 39.19 31.75 37 32 C37.33 32.66 37.66 33.32 38 34 C39.11 34.09 39.11 34.09 40.25 34.19 C43.62 35.18 44.96 36.8 46.86 39.7 C49.67 45.38 51 51.69 51 58 C52.98 58.73 54.98 59.39 57 60 C57.66 59.67 58.32 59.34 59 59 C58 62 58 62 56.27 63.16 C50.78 65.19 44.84 64.76 39.5 62.56 C33.97 56.9 33.32 48.33 31.75 40.82 C31.12 37.82 31.12 37.82 29 35 C26.36 35.33 23.72 35.66 21 36 C20.83 39.58 20.72 43.16 20.62 46.75 C20.57 47.77 20.52 48.78 20.47 49.83 C20.15 55.08 20.15 55.08 22.36 59.56 C24.18 60.8 24.18 60.8 27 62 C27 62.33 27 62.66 27 63 C22.71 63.06 18.42 63.09 14.12 63.12 C12.9 63.14 11.68 63.16 10.42 63.18 C8.67 63.19 8.67 63.19 6.88 63.2 C5.8 63.21 4.73 63.22 3.61 63.23 C1 63 1 63 -1 61 C1.97 60.5 1.97 60.5 5 60 C5.13 52.58 5.21 45.16 5.27 37.74 C5.3 35.22 5.33 32.69 5.38 30.17 C5.44 26.54 5.47 22.91 5.49 19.28 C5.51 18.15 5.54 17.03 5.57 15.87 C5.57 8.88 4.73 5.24 0 0 Z " fill="#F821FC" transform="translate(551,607)"/>
<path d="M0 0 C6.93 0 13.86 0 21 0 C25.47 9.83 29.93 19.65 34.06 29.62 C34.36 30.34 34.66 31.06 34.97 31.79 C37 36.75 37 36.75 37 39 C37.66 39 38.32 39 39 39 C39.33 39.66 39.66 40.32 40 41 C40.29 40.2 40.58 39.39 40.88 38.56 C42 36 42 36 44 35 C44 33.35 44 31.7 44 30 C44.66 30 45.32 30 46 30 C45.5 28.51 45.5 28.51 45 27 C45.66 27 46.32 27 47 27 C47.66 23.7 48.32 20.4 49 17 C49.66 17 50.32 17 51 17 C50.5 15.51 50.5 15.51 50 14 C50.66 14 51.32 14 52 14 C52.19 12.17 52.19 12.17 52.38 10.31 C52.8 6.94 53.43 4.06 55 1 C58.16 -0.58 61.53 -0.18 65 -0.19 C66.11 -0.21 66.11 -0.21 67.23 -0.22 C69.16 -0.23 71.08 -0.12 73 0 C73.99 0.99 73.99 0.99 75 2 C73.68 2.66 72.36 3.32 71 4 C70.83 11.35 70.67 18.7 70.52 26.05 C70.46 28.55 70.41 31.06 70.35 33.56 C70.27 37.15 70.19 40.74 70.12 44.33 C70.09 45.45 70.07 46.58 70.04 47.73 C70.02 48.77 70 49.81 69.98 50.89 C69.96 51.8 69.94 52.72 69.92 53.67 C69.9 56.16 69.9 56.16 71 59 C73 60.21 73 60.21 75 61 C75 61.66 75 62.32 75 63 C66.42 63 57.84 63 49 63 C48.67 62.34 48.34 61.68 48 61 C50.97 60.5 50.97 60.5 54 60 C54 44.82 54 29.64 54 14 C51.08 21 48.18 27.98 45.45 35.05 C45.15 35.83 44.84 36.61 44.53 37.42 C43.58 39.86 42.63 42.31 41.69 44.75 C41.04 46.43 40.38 48.11 39.73 49.79 C38.15 53.86 36.58 57.93 35 62 C34.01 62 33.02 62 32 62 C29.56 58.59 27.97 54.83 26.33 50.98 C25.83 49.81 25.33 48.64 24.81 47.44 C24.29 46.21 23.77 44.98 23.25 43.75 C22.75 42.58 22.25 41.41 21.73 40.2 C17.74 30.83 13.86 21.42 10 12 C9.83 18.07 9.67 24.14 9.52 30.21 C9.46 32.27 9.41 34.34 9.35 36.4 C9.27 39.37 9.19 42.33 9.12 45.3 C9.08 46.69 9.08 46.69 9.04 48.1 C9.01 49.4 9.01 49.4 8.98 50.71 C8.95 51.85 8.95 51.85 8.92 53.01 C8.92 55.21 8.92 55.21 10 58 C11.98 59.03 13.98 60.03 16 61 C16.33 61.66 16.66 62.32 17 63 C11.39 63 5.78 63 0 63 C1.49 62.5 1.49 62.5 3 62 C4.78 58.58 5.26 55.67 5.31 51.85 C5.32 50.84 5.34 49.84 5.35 48.81 C5.36 47.74 5.37 46.67 5.37 45.57 C5.38 44.46 5.39 43.35 5.4 42.2 C5.41 39.85 5.42 37.51 5.43 35.16 C5.44 31.58 5.49 28 5.54 24.41 C5.55 22.13 5.55 19.85 5.56 17.57 C5.58 16.5 5.6 15.43 5.62 14.33 C5.61 13.32 5.61 12.32 5.6 11.28 C5.6 10.41 5.61 9.53 5.61 8.62 C4.99 5.08 4.99 5.08 0 0 Z " fill="#F821FC" transform="translate(385,607)"/>
<path d="M0 0 C6.93 0 13.86 0 21 0 C25.53 8.58 29.4 17.21 32.94 26.25 C33.34 27.27 33.74 28.3 34.15 29.35 C37 36.73 37 36.73 37 39 C37.66 39 38.32 39 39 39 C39 40.32 39 41.64 39 43 C39.66 41.35 40.32 39.7 41 38 C41.66 38 42.32 38 43 38 C43.51 36.59 44.01 35.17 44.5 33.75 C44.78 32.96 45.06 32.17 45.34 31.36 C46.18 28.77 46.18 28.77 46 25 C46.66 25 47.32 25 48 25 C48.19 24.15 48.39 23.29 48.59 22.41 C48.85 21.31 49.11 20.2 49.38 19.06 C49.76 17.41 49.76 17.41 50.15 15.72 C50.43 14.82 50.71 13.93 51 13 C51.66 12.67 52.32 12.34 53 12 C53.19 10.04 53.38 8.07 53.46 6.11 C54.26 2.98 55.38 1.87 58 0 C60.86 -0.35 63.28 -0.47 66.12 -0.38 C66.85 -0.37 67.58 -0.37 68.33 -0.37 C73.72 -0.28 73.72 -0.28 76 2 C74.78 2.58 74.78 2.58 73.54 3.17 C70.8 4.74 70.8 4.74 70.36 7.41 C70.35 8.36 70.35 9.32 70.34 10.3 C70.31 11.92 70.31 11.92 70.28 13.57 C70.28 14.74 70.29 15.9 70.29 17.11 C70.27 18.9 70.27 18.9 70.25 20.72 C70.2 24.55 70.2 28.37 70.19 32.19 C70.16 34.78 70.14 37.36 70.11 39.95 C70.05 46.3 70.01 52.65 70 59 C70.8 59.29 71.61 59.58 72.44 59.88 C75 61 75 61 76 63 C67.09 63 58.18 63 49 63 C49.33 62.01 49.66 61.02 50 60 C51.98 59.5 51.98 59.5 54 59 C54.33 43.82 54.66 28.64 55 13 C53.36 15.46 52.41 17.29 51.41 20.01 C51.1 20.82 50.8 21.63 50.49 22.46 C50.16 23.34 49.84 24.22 49.5 25.12 C44.86 37.49 39.94 49.75 35 62 C33.15 61.8 33.15 61.8 31 61 C29.69 58.97 29.69 58.97 28.55 56.28 C28.12 55.27 27.69 54.27 27.24 53.24 C26.79 52.15 26.34 51.06 25.88 49.94 C25.4 48.83 24.93 47.72 24.44 46.58 C22.95 43.06 21.47 39.53 20 36 C19.02 33.67 18.04 31.33 17.06 29 C14.69 23.34 12.34 17.67 10 12 C9.81 17.59 9.63 23.17 9.46 28.76 C9.4 30.66 9.34 32.56 9.28 34.46 C9.18 37.19 9.1 39.93 9.02 42.66 C8.98 43.93 8.98 43.93 8.93 45.22 C8.81 49.87 8.97 53.7 11 58 C14 59.92 14 59.92 17 61 C17 61.66 17 62.32 17 63 C11.72 63 6.44 63 1 63 C1.33 62.01 1.66 61.02 2 60 C2.99 60 3.98 60 5 60 C7.4 50.64 7.27 41.38 7.06 31.81 C7.02 29.88 6.99 27.95 6.97 26.02 C6.95 23.03 6.88 20.05 6.81 17.06 C6.81 16.13 6.8 15.2 6.8 14.25 C6.64 9.64 6.54 7.65 3.51 4 C2.68 3.34 1.85 2.68 1 2 C0.67 1.34 0.34 0.68 0 0 Z " fill="#F821FC" transform="translate(233,607)"/>
<path d="M0 0 C6.93 0 13.86 0 21 0 C23.52 5.04 25.87 9.88 28.02 15.05 C28.28 15.68 28.54 16.31 28.81 16.96 C29.35 18.27 29.89 19.57 30.43 20.88 C31.26 22.89 32.09 24.9 32.93 26.91 C33.46 28.18 33.99 29.46 34.52 30.74 C34.99 31.9 35.47 33.05 35.96 34.24 C37 37 37 37 37 39 C38.32 39.33 39.64 39.66 41 40 C41.67 38.57 42.34 37.13 43 35.69 C43.37 34.89 43.74 34.09 44.12 33.26 C45.18 30.94 45.18 30.94 45 28 C45.66 28 46.32 28 47 28 C47.19 27.04 47.19 27.04 47.38 26.06 C47.58 25.05 47.79 24.04 48 23 C48.11 22.37 48.22 21.74 48.34 21.09 C49.62 14.42 51.84 8.02 55 2 C58.64 -0.42 61.36 -0.3 65.56 -0.25 C66.59 -0.26 66.59 -0.26 67.64 -0.27 C72.75 -0.25 72.75 -0.25 75 2 C73.68 2.33 72.36 2.66 71 3 C70.21 6.48 69.88 9.68 69.89 13.25 C69.89 14.27 69.89 15.29 69.89 16.34 C69.89 17.43 69.9 18.52 69.9 19.64 C69.9 20.77 69.91 21.89 69.91 23.05 C69.91 26.64 69.92 30.23 69.94 33.81 C69.94 36.25 69.95 38.68 69.95 41.12 C69.96 47.08 69.98 53.04 70 59 C70.8 59.29 71.61 59.58 72.44 59.88 C75 61 75 61 76 63 C67.09 63 58.18 63 49 63 C48.67 62.34 48.34 61.68 48 61 C49.98 60.34 51.96 59.68 54 59 C54 43.49 54 27.98 54 12 C51.69 18.6 49.38 25.2 47 32 C44.89 37.43 42.76 42.85 40.56 48.25 C40.02 49.6 39.47 50.96 38.92 52.31 C37.62 55.54 36.31 58.77 35 62 C31.61 61.08 30.29 60.48 28.46 57.41 C28.03 56.33 27.61 55.25 27.17 54.13 C26.68 52.92 26.2 51.72 25.7 50.47 C25.19 49.17 24.69 47.87 24.19 46.56 C23.66 45.24 23.14 43.93 22.61 42.61 C21.56 39.98 20.51 37.35 19.48 34.71 C17.47 29.67 15.37 24.68 13.25 19.69 C12.61 18.17 11.97 16.65 11.33 15.14 C10.89 14.1 10.45 13.07 10 12 C9.67 15.96 9.34 19.92 9 24 C8.01 24 7.02 24 6 24 C5.99 22.69 5.97 21.37 5.96 20.02 C5.91 18.28 5.86 16.55 5.81 14.81 C5.8 13.52 5.8 13.52 5.79 12.19 C5.77 11.35 5.74 10.51 5.71 9.64 C5.68 8.49 5.68 8.49 5.66 7.31 C4.96 4.15 4.96 4.15 0 0 Z " fill="#F821FC" transform="translate(845,607)"/>
<path d="M0 0 C6.71 4.03 11.13 10.94 13.19 18.38 C14.97 27.25 12.3 33.39 7.5 40.88 C2.21 45.82 -3.75 47.76 -10.94 48.06 C-19.06 47.73 -25.75 44.32 -31.38 38.56 C-35.18 32.46 -36.96 26.8 -36.38 19.56 C-33.98 11.34 -30.43 5.08 -22.88 0.69 C-15.73 -2.61 -7.34 -3.07 0 0 Z " fill="#FC0366" transform="translate(376.375,879.4375)"/>
<path d="M0 0 C0.97 -0.04 1.94 -0.07 2.93 -0.11 C5.56 0.31 5.56 0.31 7.37 1.85 C8.98 5.18 9.09 8.37 9.19 12 C8.95 16.52 8.95 16.52 10.56 20.31 C13.74 20.52 16.92 20.66 20.1 20.74 C22.12 20.84 22.12 20.84 25.56 21.31 C28.04 25.03 27.8 27.02 27.75 31.44 C27.74 32.7 27.74 33.96 27.73 35.26 C27.56 38.31 27.56 38.31 26.56 39.31 C23.7 39.55 20.86 39.73 18 39.88 C17.19 39.92 16.39 39.96 15.56 40.01 C13.56 40.11 11.56 40.21 9.56 40.31 C9.59 41.43 9.61 42.55 9.63 43.71 C9.65 45.18 9.67 46.65 9.69 48.12 C9.7 48.86 9.72 49.6 9.74 50.36 C9.77 54.22 9.76 56.02 7.56 59.31 C4.41 59.68 4.41 59.68 0.62 59.62 C-0.62 59.62 -1.87 59.62 -3.15 59.61 C-6.44 59.31 -6.44 59.31 -9.44 57.31 C-9.8 54.56 -10 52.01 -10.06 49.25 C-9.79 44.39 -9.79 44.39 -11.44 40.31 C-14.99 40.03 -18.55 39.86 -22.12 39.69 C-25.44 39.31 -25.44 39.31 -28.44 37.31 C-28.8 34.38 -28.8 34.38 -28.75 30.88 C-28.75 29.72 -28.74 28.57 -28.74 27.38 C-28.44 24.31 -28.44 24.31 -26.44 21.31 C-23.65 21.09 -21.09 21.03 -18.31 21.12 C-17.18 21.15 -17.18 21.15 -16.03 21.17 C-14.16 21.2 -12.3 21.26 -10.44 21.31 C-10.49 19.78 -10.49 19.78 -10.54 18.21 C-10.57 16.85 -10.6 15.49 -10.62 14.12 C-10.65 13.45 -10.68 12.78 -10.7 12.08 C-10.77 7.61 -10.19 4.86 -7.44 1.31 C-4.86 0.03 -2.87 0.07 0 0 Z " fill="#00CCFD" transform="translate(805.4375,288.6875)"/>
<path d="M0 0 C0.87 -0 1.74 -0.01 2.64 -0.01 C5.51 -0.02 8.37 -0.01 11.24 0.01 C13.24 0.01 15.23 0.01 17.23 0.01 C21.41 0.01 25.59 0.02 29.77 0.04 C35.12 0.06 40.48 0.06 45.84 0.05 C49.96 0.05 54.08 0.06 58.2 0.07 C60.18 0.07 62.15 0.07 64.13 0.07 C66.89 0.07 69.64 0.08 72.4 0.1 C73.63 0.09 73.63 0.09 74.88 0.09 C81.87 0.16 81.87 0.16 85.01 2.37 C87.55 5.8 87.31 9.23 87.01 13.37 C85.01 16.37 85.01 16.37 82.01 17.37 C79.04 17.48 76.09 17.53 73.12 17.53 C72.21 17.54 71.3 17.54 70.36 17.55 C67.35 17.56 64.34 17.57 61.33 17.58 C59.24 17.58 57.14 17.59 55.05 17.59 C50.67 17.6 46.28 17.61 41.89 17.61 C36.27 17.62 30.65 17.64 25.03 17.67 C20.71 17.69 16.39 17.69 12.07 17.7 C10 17.7 7.92 17.71 5.85 17.72 C2.95 17.74 0.06 17.74 -2.84 17.73 C-4.13 17.74 -4.13 17.74 -5.44 17.76 C-10.06 17.72 -13.31 17.51 -16.99 14.37 C-17.91 11 -18.25 8.54 -17.49 5.12 C-13.05 -0.06 -6.29 -0.06 0 0 Z " fill="#000002" transform="translate(328.992919921875,1045.627685546875)"/>
<path d="M0 0 C8.02 8.41 9.93 18.01 10.25 29.44 C10.2 30.96 10.11 32.48 10 34 C9.92 35.1 9.84 36.21 9.76 37.35 C8.91 45.43 7.11 50.71 2 57 C1.34 57.99 0.68 58.98 0 60 C-1.95 60.51 -1.95 60.51 -4.12 60.69 C-6.04 60.84 -6.04 60.84 -8 61 C-8 60.34 -8 59.68 -8 59 C-8.68 58.84 -9.36 58.67 -10.06 58.5 C-15.33 55.81 -18.83 51.8 -21.11 46.33 C-24.97 32.78 -24.03 18.19 -18 5.44 C-16.39 2.67 -15.4 0.98 -13 -1 C-8.1 -2.03 -4.41 -2.74 0 0 Z " fill="#FAFCFE" transform="translate(512,610)"/>
<path d="M0 0 C6.46 6.21 10.29 11.34 11.03 20.34 C10.97 25.77 9.12 30.17 6.31 34.75 C0.88 40.04 -3.16 42.33 -10.94 42.62 C-18.46 42.33 -23.45 40.44 -28.84 35.21 C-33.97 29.52 -34.36 24.87 -34.27 17.29 C-33.72 10.58 -31 6.68 -26.19 2.12 C-18.91 -3.78 -8.06 -5.6 0 0 Z " fill="#00CCFD" transform="translate(977,351)"/>
<path d="M0 0 C5.6 3.96 10.88 9.94 12.29 16.77 C13.12 24.52 12.29 29.55 7.89 36 C2.48 41.73 -1.46 43.43 -9.3 43.75 C-17.01 43.86 -21.71 41.55 -27.23 36.25 C-32.44 30.67 -32.59 25.94 -32.5 18.54 C-31.95 11.8 -29.22 7.92 -24.36 3.38 C-17.45 -2.21 -8.28 -4.03 0 0 Z " fill="#00CCFD" transform="translate(868.234375,349.75)"/>
<path d="M0 0 C2.08 1.33 2.08 1.33 5.02 1.09 C5.68 0.43 6.34 -0.23 7.02 -0.91 C7.02 5.36 7.02 11.63 7.02 18.09 C6.03 17.76 5.04 17.43 4.02 17.09 C3.29 15.27 3.29 15.27 2.71 12.97 C1.22 8 -1.21 4.62 -4.98 1.09 C-8.93 -0.88 -13.67 -0.33 -17.98 0.09 C-23.16 2.45 -25.92 5.87 -27.98 11.09 C-32.07 24.24 -32.18 36.92 -27.98 50.09 C-25.82 54.04 -23.08 56.31 -18.98 58.09 C-17.4 58.52 -15.82 58.89 -14.23 59.22 C-13.43 59.39 -12.63 59.55 -11.8 59.73 C-10.9 59.91 -10.9 59.91 -9.98 60.09 C-9.48 59.1 -9.48 59.1 -8.98 58.09 C-8.65 57.76 -8.32 57.43 -7.98 57.09 C-7.82 54.12 -7.74 51.19 -7.73 48.22 C-7.71 47.39 -7.69 46.56 -7.66 45.71 C-7.66 44.91 -7.65 44.11 -7.65 43.29 C-7.64 42.56 -7.63 41.83 -7.62 41.07 C-8.08 38.53 -9 37.7 -10.98 36.09 C-13.08 34.92 -13.08 34.92 -14.98 34.09 C-14.98 33.76 -14.98 33.43 -14.98 33.09 C-11.02 33.04 -7.06 33 -3.1 32.97 C-1.97 32.95 -0.85 32.94 0.32 32.92 C1.39 32.91 2.47 32.91 3.58 32.9 C4.57 32.89 5.57 32.88 6.59 32.87 C9.02 33.09 9.02 33.09 11.02 35.09 C10.7 35.66 10.38 36.22 10.05 36.8 C8.93 39.31 8.71 41.12 8.61 43.86 C8.57 44.75 8.53 45.64 8.49 46.55 C8.45 47.94 8.45 47.94 8.4 49.34 C8.36 50.28 8.32 51.22 8.28 52.18 C8.19 54.48 8.1 56.79 8.02 59.09 C7.34 58.54 6.66 57.99 5.96 57.41 C3 55.69 3 55.69 -0.32 57.15 C-1.57 57.74 -2.81 58.35 -4.04 58.97 C-11.05 62.12 -16.34 62.8 -23.98 61.09 C-24.78 60.92 -25.58 60.76 -26.4 60.58 C-33.13 58.76 -39.35 54.88 -43.36 49.11 C-44.39 47.13 -45.22 45.19 -45.98 43.09 C-46.39 42 -46.8 40.91 -47.23 39.78 C-49.19 30.12 -48.13 21.08 -43.98 12.09 C-33.89 -2.4 -16.1 -9.63 0 0 Z " fill="#F821FC" transform="translate(755.9765625,609.90625)"/>
<path d="M0 0 C6.23 -0.05 12.46 -0.09 18.69 -0.11 C20.81 -0.12 22.93 -0.13 25.05 -0.15 C28.09 -0.18 31.14 -0.19 34.18 -0.2 C35.13 -0.21 36.08 -0.22 37.06 -0.23 C37.95 -0.23 38.83 -0.23 39.73 -0.23 C40.51 -0.23 41.29 -0.24 42.09 -0.24 C44 0 44 0 46 2 C46.15 4.91 46.19 7.72 46.12 10.62 C46.12 11.43 46.11 12.23 46.1 13.05 C46.07 15.04 46.04 17.02 46 19 C45.34 19 44.68 19 44 19 C43.62 18.11 43.62 18.11 43.23 17.21 C42.18 14.79 41.09 12.4 40 10 C39.59 9.03 39.18 8.06 38.75 7.06 C35.96 3.77 33.19 3.6 29 3 C24.55 3.5 24.55 3.5 20 4 C20 11.92 20 19.84 20 28 C24.31 29.08 25.3 29.18 29 27 C30.84 23.98 30.84 23.98 32 21 C32.99 21 33.98 21 35 21 C35 28.59 35 36.18 35 44 C34.67 43.34 34.34 42.68 34 42 C33.34 42 32.68 42 32 42 C31.55 41.05 31.09 40.1 30.62 39.12 C29.2 36 29.2 36 27 34 C24.68 33.28 22.35 32.61 20 32 C19.97 35.56 19.95 39.12 19.94 42.69 C19.93 43.69 19.92 44.7 19.91 45.74 C19.91 46.72 19.91 47.69 19.9 48.7 C19.9 49.59 19.89 50.49 19.89 51.41 C20 54.04 20.42 56.44 21 59 C23.58 59.11 26.16 59.19 28.75 59.25 C29.84 59.3 29.84 59.3 30.96 59.35 C34.51 59.42 36.54 59.35 39.41 57.16 C42.72 52.66 44.34 48.54 45 43 C45.99 43.5 45.99 43.5 47 44 C47.5 53.4 47.5 53.4 48 63 C32.16 63 16.32 63 0 63 C-0.33 62.34 -0.66 61.68 -1 61 C0.65 60.34 2.3 59.68 4 59 C4.1 51.56 4.17 44.12 4.22 36.69 C4.24 34.16 4.27 31.63 4.3 29.1 C4.35 25.46 4.37 21.82 4.39 18.18 C4.41 17.05 4.43 15.92 4.45 14.76 C4.45 8.53 4.19 4.75 0 0 Z " fill="#F821FB" transform="translate(323,607)"/>
<path d="M0 0 C6.23 -0.05 12.46 -0.09 18.69 -0.11 C20.81 -0.12 22.93 -0.13 25.05 -0.15 C28.09 -0.18 31.14 -0.19 34.18 -0.2 C35.13 -0.21 36.08 -0.22 37.06 -0.23 C37.95 -0.23 38.83 -0.23 39.73 -0.23 C40.51 -0.23 41.29 -0.24 42.09 -0.24 C44 0 44 0 46 2 C46.15 4.74 46.19 7.38 46.12 10.12 C46.12 10.88 46.11 11.63 46.1 12.41 C46.07 14.27 46.04 16.14 46 18 C45.01 18.5 45.01 18.5 44 19 C43.6 18.17 43.2 17.34 42.79 16.48 C42.26 15.39 41.73 14.31 41.19 13.19 C40.4 11.57 40.4 11.57 39.61 9.92 C37.77 6.53 37.77 6.53 35 4 C32.64 3.39 32.64 3.39 30.06 3.25 C28.78 3.13 28.78 3.13 27.47 3.02 C25.05 3 23.25 3.1 21 4 C20.02 6.94 19.88 8.83 19.9 11.89 C19.91 13.29 19.91 13.29 19.91 14.73 C19.92 15.7 19.93 16.68 19.94 17.69 C19.94 18.68 19.95 19.66 19.95 20.68 C19.96 23.12 19.98 25.56 20 28 C22.56 28.74 23.89 29.02 26.56 28.5 C30.12 26.31 30.63 23.9 32 20 C32.66 20.33 33.32 20.66 34 21 C34.5 32.38 34.5 32.38 35 44 C34.67 43.34 34.34 42.68 34 42 C33.34 42 32.68 42 32 42 C30.78 40.04 29.75 38.01 28.71 35.95 C26.24 33.14 23.56 32.8 20 32 C19.97 36.12 19.95 40.25 19.94 44.38 C19.93 45.55 19.92 46.73 19.91 47.94 C19.91 49.06 19.91 50.18 19.9 51.34 C19.9 52.37 19.89 53.41 19.89 54.48 C19.83 57 19.83 57 21 59 C23.57 59.16 26.12 59.28 28.69 59.38 C29.41 59.43 30.13 59.48 30.87 59.53 C35.25 59.65 36.54 59.42 39.91 56.31 C41.79 53.34 42.94 51.01 43.81 47.62 C44.05 46.75 44.28 45.88 44.52 44.98 C44.76 44 44.76 44 45 43 C45.99 43.5 45.99 43.5 47 44 C47.5 53.4 47.5 53.4 48 63 C32.16 63 16.32 63 0 63 C-0.33 62.34 -0.66 61.68 -1 61 C0.65 60.34 2.3 59.68 4 59 C4.1 51.56 4.17 44.12 4.22 36.69 C4.24 34.16 4.27 31.63 4.3 29.1 C4.35 25.46 4.37 21.82 4.39 18.18 C4.41 17.05 4.43 15.92 4.45 14.76 C4.45 8.53 4.19 4.75 0 0 Z " fill="#F821FC" transform="translate(935,607)"/>
<path d="M0 0 C2.79 0.25 2.79 0.25 5 0 C5.33 -0.66 5.66 -1.32 6 -2 C5.67 4.27 5.34 10.54 5 17 C4.51 16.01 4.51 16.01 4 15 C3.34 15 2.68 15 2 15 C1.77 14.41 1.54 13.82 1.3 13.21 C-1.59 6.17 -1.59 6.17 -7 1 C-10.41 0.44 -13.61 0.31 -17 1 C-19.75 3.06 -19.99 3.96 -20.81 7.44 C-21 11.08 -20.89 12.05 -19 15 C-17.2 16.63 -17.2 16.63 -15.04 18.06 C-14.26 18.61 -13.48 19.16 -12.67 19.73 C-11.85 20.29 -11.03 20.86 -10.19 21.44 C5.32 32.19 5.32 32.19 8 40 C8.78 44.91 9.13 49.65 6.93 54.22 C3.56 58.55 -0.58 61.07 -6 62 C-14.66 62.68 -21.94 62.28 -30 59 C-30.66 59 -31.32 59 -32 59 C-32 59.66 -32 60.32 -32 61 C-32.99 60.67 -33.98 60.34 -35 60 C-35 53.07 -35 46.14 -35 39 C-34.01 39.33 -33.02 39.66 -32 40 C-31.04 42.77 -31.04 42.77 -30.19 46.25 C-28.51 52.15 -27.26 54.87 -22 58 C-17.79 59.4 -13.84 59.68 -9.62 58.12 C-7.84 57.08 -7.84 57.08 -7 55 C-6.23 50.27 -6.38 46.19 -9.06 42.12 C-12.84 37.59 -17.71 34.29 -22.53 30.94 C-33.58 23.26 -33.58 23.26 -35 16 C-35.1 9.65 -33.49 6.27 -29.08 1.7 C-20.69 -5.16 -9.25 -4.44 0 0 Z " fill="#F821FC" transform="translate(1033,609)"/>
<path d="M0 0 C3.96 -0.06 7.92 -0.09 11.88 -0.12 C13 -0.14 14.13 -0.16 15.29 -0.18 C16.37 -0.18 17.45 -0.19 18.55 -0.2 C19.55 -0.21 20.54 -0.22 21.57 -0.23 C24 0 24 0 26 2 C24.35 2.33 22.7 2.66 21 3 C22.3 9.24 24.44 14.3 27.5 19.88 C27.9 20.63 28.31 21.39 28.72 22.17 C30.96 26.37 30.96 26.37 34 30 C39.13 25.82 42.92 18.55 44 12 C42.91 6.54 41.64 4.55 38 0 C42.95 0 47.9 0 53 0 C53 4.86 52 5.37 49 9 C47.54 11.5 46.27 14.09 45 16.69 C44.67 17.34 44.34 18 44 18.68 C42.96 20.77 41.98 22.88 41 25 C40.63 25.76 40.26 26.52 39.89 27.3 C36.84 34.08 36.35 40.25 36.25 47.62 C36.21 49.27 36.21 49.27 36.16 50.96 C36.09 53.64 36.04 56.32 36 59 C37.98 59.66 39.96 60.32 42 61 C42 61.66 42 62.32 42 63 C37.88 63.06 33.75 63.09 29.62 63.12 C28.45 63.14 27.27 63.16 26.06 63.18 C24.38 63.19 24.38 63.19 22.66 63.2 C21.63 63.21 20.59 63.22 19.52 63.23 C17 63 17 63 15 61 C17.97 60.5 17.97 60.5 21 60 C22.07 42.12 17.26 30.08 8 15 C7.55 14.26 7.11 13.52 6.65 12.76 C4.92 9.89 3.16 7.05 1.33 4.23 C0 2 0 2 0 0 Z " fill="#F821FC" transform="translate(615,607)"/>
<path d="M0 0 C2.34 0.23 2.34 0.23 5 1 C6.43 2.91 6.43 2.91 7.55 5.39 C7.96 6.3 8.38 7.21 8.8 8.14 C10.69 12.65 12.5 17.17 14.21 21.75 C14.58 22.73 14.95 23.71 15.33 24.72 C16.1 26.77 16.87 28.82 17.64 30.87 C18.82 34.02 20.01 37.17 21.2 40.32 C21.95 42.31 22.71 44.31 23.46 46.31 C23.81 47.26 24.17 48.2 24.54 49.17 C24.86 50.04 25.18 50.91 25.52 51.8 C25.95 52.95 25.95 52.95 26.39 54.12 C27 56 27 56 27 58 C27.99 58.33 28.98 58.66 30 59 C30.66 60.32 31.32 61.64 32 63 C23.42 63 14.84 63 6 63 C5.67 62.34 5.34 61.68 5 61 C7.97 60.5 7.97 60.5 11 60 C10.03 57.02 9.04 54.04 8.06 51.06 C7.65 49.79 7.65 49.79 7.22 48.49 C6.95 47.68 6.69 46.87 6.41 46.04 C6.16 45.29 5.92 44.54 5.66 43.77 C5.14 42 5.14 42 4 41 C1.01 40.87 -1.95 40.81 -4.94 40.81 C-6.19 40.79 -6.19 40.79 -7.47 40.78 C-8.28 40.77 -9.08 40.77 -9.9 40.77 C-11.01 40.76 -11.01 40.76 -12.14 40.76 C-14.25 40.84 -14.25 40.84 -16 43 C-16.12 37.25 -16.12 37.25 -15 35 C-14.34 35 -13.68 35 -13 35 C-13.5 33.51 -13.5 33.51 -14 32 C-13.34 32 -12.68 32 -12 32 C-11.67 31.34 -11.34 30.68 -11 30 C-11.33 32.31 -11.66 34.62 -12 37 C-8.04 37 -4.08 37 0 37 C0 37.66 0 38.32 0 39 C1.98 38.5 1.98 38.5 4 38 C3.68 37.21 3.68 37.21 3.36 36.4 C2.4 33.99 1.45 31.59 0.5 29.19 C0.17 28.35 -0.17 27.52 -0.51 26.66 C-0.99 25.46 -0.99 25.46 -1.47 24.23 C-1.76 23.49 -2.06 22.75 -2.36 21.99 C-3 20 -3 20 -3 17 C-3.99 17 -4.98 17 -6 17 C-6.12 17.95 -6.25 18.9 -6.38 19.88 C-7 23 -7 23 -9 25 C-8.54 15.88 -5.83 7.18 0 0 Z " fill="#F821FB" transform="translate(804,607)"/>
<path d="M0 0 C0.93 -0.01 1.86 -0.02 2.82 -0.03 C3.82 -0.03 4.83 -0.04 5.86 -0.04 C6.89 -0.05 7.93 -0.05 8.99 -0.06 C11.17 -0.07 13.35 -0.08 15.53 -0.08 C18.88 -0.09 22.22 -0.12 25.57 -0.15 C27.69 -0.16 29.81 -0.16 31.92 -0.17 C32.93 -0.18 33.93 -0.19 34.96 -0.2 C35.89 -0.2 36.83 -0.2 37.79 -0.2 C38.6 -0.2 39.42 -0.2 40.27 -0.21 C43.57 0.36 44.77 2.29 46.64 4.91 C47.75 8.23 47.14 10.8 46.39 14.16 C43.87 16.68 43.03 16.41 39.55 16.42 C38.54 16.43 37.53 16.43 36.49 16.44 C34.85 16.43 34.85 16.43 33.18 16.43 C32.06 16.43 30.94 16.43 29.79 16.43 C27.42 16.43 25.04 16.43 22.67 16.42 C19.04 16.41 15.41 16.42 11.78 16.43 C9.47 16.43 7.17 16.43 4.87 16.43 C3.78 16.43 2.69 16.43 1.57 16.44 C0.56 16.43 -0.46 16.43 -1.5 16.42 C-2.39 16.42 -3.29 16.42 -4.2 16.42 C-6.76 16.14 -8.4 15.45 -10.61 14.16 C-10.69 12.56 -10.75 10.95 -10.79 9.35 C-10.83 8.46 -10.86 7.56 -10.9 6.64 C-10.61 4.16 -10.61 4.16 -9.28 2.4 C-6.3 0.19 -3.58 0.03 0 0 Z " fill="#000002" transform="translate(345.607421875,1076.8388671875)"/>
<path d="M0 0 C4.09 1.24 6.43 3.52 9.33 6.51 C10.17 7.35 10.17 7.35 11.02 8.2 C12.2 9.39 13.37 10.58 14.54 11.77 C16.31 13.58 18.1 15.37 19.9 17.16 C21.04 18.32 22.19 19.48 23.33 20.64 C23.86 21.16 24.39 21.69 24.93 22.24 C28.44 25.86 30.97 29.43 33.2 33.97 C32.6 37.23 31.64 38.52 29.32 40.85 C27.2 41.97 27.2 41.97 25.31 41.69 C16.84 38.82 10.33 31.64 4.17 25.45 C2.68 23.96 1.18 22.49 -0.34 21.03 C-1.3 20.07 -2.25 19.12 -3.21 18.16 C-4.5 16.88 -4.5 16.88 -5.81 15.58 C-8.1 12.59 -8.63 10.7 -8.8 6.97 C-6.89 2.76 -4.95 -0.05 0 0 Z " fill="#000002" transform="translate(249.80419921875,748.02880859375)"/>
<path d="M0 0 C1.06 -0 2.13 -0.01 3.22 -0.01 C8.42 -0.01 13.61 0.11 18.79 0.45 C20.1 0.53 20.1 0.53 21.43 0.62 C24.09 1.22 25.01 2.02 26.69 4.12 C28.1 6.95 28.01 9 27.69 12.12 C25.91 14.21 24.41 15.02 21.7 15.4 C19.15 15.52 16.62 15.54 14.07 15.52 C13.13 15.53 12.19 15.53 11.23 15.53 C9.25 15.53 7.27 15.53 5.29 15.52 C2.26 15.5 -0.76 15.52 -3.78 15.54 C-5.71 15.53 -7.63 15.53 -9.56 15.52 C-10.46 15.53 -11.36 15.54 -12.29 15.54 C-17.03 15.49 -20.58 15.4 -24.31 12.12 C-24.95 8.24 -24.93 6.11 -22.81 2.75 C-16.59 -1.3 -7.17 -0.03 0 0 Z " fill="#000002" transform="translate(506.3125,862.875)"/>
<path d="M0 0 C3.36 6.86 3.35 12.93 3.08 20.49 C2.99 23.46 2.95 26.42 2.91 29.39 C2.86 31.66 2.8 33.92 2.75 36.19 C2.74 37.29 2.72 38.39 2.71 39.52 C2.68 40.56 2.64 41.6 2.61 42.67 C2.59 43.6 2.57 44.53 2.55 45.49 C1.84 48.73 0.58 49.98 -2 52 C-5.82 51.9 -8.23 50.57 -11 48 C-12.27 44.19 -12.18 40.58 -12.2 36.61 C-12.21 35.78 -12.21 34.96 -12.22 34.11 C-12.23 32.36 -12.24 30.61 -12.24 28.87 C-12.25 26.21 -12.28 23.55 -12.31 20.89 C-12.32 19.19 -12.32 17.49 -12.33 15.79 C-12.34 15 -12.35 14.21 -12.37 13.4 C-12.35 8.54 -11.69 5.21 -9 1 C-6.04 -0.48 -3.26 -0.06 0 0 Z " fill="#000002" transform="translate(368,708)"/>
<path d="M0 0 C0.94 -0 1.88 -0.01 2.85 -0.01 C4.83 -0.01 6.81 -0.01 8.79 0.01 C11.83 0.03 14.87 0.01 17.91 -0.02 C19.83 -0.01 21.76 -0.01 23.69 0 C24.6 -0.01 25.51 -0.02 26.44 -0.02 C32.68 0.07 32.68 0.07 35.28 2.34 C36.66 5.59 36.65 8.05 36.21 11.53 C34.43 13.64 32.95 14.43 30.21 14.81 C27.66 14.93 25.12 14.95 22.55 14.93 C21.62 14.93 20.68 14.94 19.71 14.94 C17.72 14.94 15.74 14.93 13.76 14.92 C10.72 14.91 7.69 14.92 4.65 14.94 C2.72 14.94 0.8 14.94 -1.13 14.93 C-2.04 14.94 -2.95 14.94 -3.88 14.95 C-10.11 14.88 -10.11 14.88 -13.36 13.22 C-14.79 11.53 -14.79 11.53 -15.35 8.09 C-14.79 4.53 -14.79 4.53 -12.87 2.34 C-8.55 -0.2 -4.93 -0.04 0 0 Z " fill="#000002" transform="translate(208.7890625,863.46875)"/>
<path d="M0 0 C2.11 2.38 2.83 4.16 3.45 7.26 C2.74 11.58 -0.1 13.75 -3.17 16.73 C-3.8 17.36 -4.43 17.99 -5.08 18.63 C-6.42 19.96 -7.77 21.29 -9.12 22.6 C-11.17 24.61 -13.21 26.64 -15.25 28.67 C-16.56 29.96 -17.86 31.25 -19.17 32.54 C-19.78 33.14 -20.39 33.75 -21.01 34.37 C-24.15 37.41 -27.1 39.94 -31 42 C-33.31 40.02 -35.62 38.04 -38 36 C-37.47 32.27 -36.72 30.2 -34.16 27.44 C-33.52 26.75 -32.89 26.07 -32.24 25.36 C-31.5 24.58 -30.76 23.8 -30 23 C-29.14 22.08 -28.27 21.15 -27.38 20.2 C-24.96 17.63 -22.5 15.09 -20.03 12.57 C-19 11.52 -17.98 10.45 -16.97 9.39 C-15.49 7.82 -13.98 6.29 -12.47 4.75 C-11.59 3.84 -10.7 2.92 -9.79 1.98 C-6.27 -0.52 -4.23 -0.56 0 0 Z " fill="#000002" transform="translate(483,749)"/>
<path d="M0 0 C4.2 3.31 6.78 6.38 7.5 11.75 C7.36 16.06 5.89 18.64 2.9 21.7 C0.02 23.67 -2.24 23.91 -5.68 23.61 C-10 22.47 -13.25 20.55 -16 17 C-17.38 12.24 -16.46 8.87 -14.19 4.56 C-10 -0.34 -6.16 -1.08 0 0 Z " fill="#00CCFD" transform="translate(1055,310)"/>
<path d="M0 0 C2.58 2.28 4.45 4.91 6 8 C6.36 15.47 6.36 15.47 4 19 C3.34 19 2.68 19 2 19 C1.67 19.99 1.34 20.98 1 22 C-2.21 23.61 -4.43 23.4 -8 23 C-11.3 21.05 -14.29 18.71 -17 16 C-17.39 11.35 -17.44 8.91 -15.38 4.69 C-10.82 -0.46 -6.68 -2.06 0 0 Z " fill="#00CCFD" transform="translate(1026,282)"/>
<path d="M0 0 C3.8 1.22 5.85 4.4 7.96 7.63 C9.59 10.88 9.51 14.12 8.96 17.63 C6.62 22.01 6.62 22.01 3.96 23.63 C-0.99 24.71 -4.88 24.16 -9.47 22.07 C-12.65 19.05 -13.95 16.89 -15.04 12.63 C-13.09 5.11 -8.11 -0.47 0 0 Z " fill="#00CCFD" transform="translate(1023.03515625,337.3671875)"/>
<path d="M0 0 C3.25 2.49 5.69 5.08 7 9 C7.5 12.82 7.15 14.7 5.44 18.19 C2.46 21.63 0.41 22.88 -4 24 C-9.16 22.58 -12.82 20.33 -16 16 C-16.71 11.03 -16.57 9.05 -14.19 4.62 C-10.04 -0.36 -6.18 -1.08 0 0 Z " fill="#00CCFD" transform="translate(996,310)"/>
<path d="M0 0 C3.83 0.61 5.4 1.78 8.12 4.5 C11.55 9.75 10.71 16.51 10.12 22.5 C8.89 25.79 7.34 27.89 4.12 29.5 C2.25 29.67 2.25 29.67 0.12 29.69 C-0.93 29.71 -0.93 29.71 -2 29.73 C-3.88 29.5 -3.88 29.5 -5.88 27.5 C-6.33 23.73 -6.2 19.92 -6.19 16.12 C-6.2 15.07 -6.22 14.02 -6.24 12.93 C-6.24 11.91 -6.24 10.9 -6.24 9.85 C-6.24 8.92 -6.24 7.99 -6.25 7.03 C-5.63 2.83 -4.23 0.74 0 0 Z " fill="#FAFDFF" transform="translate(576.875,608.5)"/>
<path d="M0 0 C0.77 -0.02 1.54 -0.05 2.34 -0.07 C7.98 -0.1 7.98 -0.1 10.54 2.27 C11.5 4.38 11.5 4.38 11.31 6.5 C10.5 8.38 10.5 8.38 8.5 10.38 C5.66 10.6 2.96 10.7 0.12 10.69 C-0.64 10.7 -1.41 10.72 -2.2 10.74 C-5.79 10.74 -7.91 10.73 -11.04 8.86 C-11.52 8.37 -12 7.88 -12.5 7.38 C-12.19 5 -12.19 5 -11.5 2.38 C-7.66 -0.18 -4.45 0.01 0 0 Z " fill="#00CCFD" transform="translate(943.5,318.625)"/>
<path d="M0 0 C0.72 -0.02 1.44 -0.03 2.18 -0.05 C7.41 -0.05 7.41 -0.05 9.91 1.67 C11.36 4 11.28 5.63 10.94 8.31 C8.33 10.92 6.47 10.57 2.91 10.59 C2.14 10.58 1.36 10.57 0.56 10.56 C-0.21 10.57 -0.97 10.58 -1.77 10.59 C-8.72 10.56 -8.72 10.56 -12.06 8.31 C-12.06 6.33 -12.06 4.35 -12.06 2.31 C-8.27 -0.17 -4.38 -0.02 0 0 Z " fill="#00CCFD" transform="translate(882.0625,318.6875)"/>
<path d="M0 0 C0.33 0 0.66 0 1 0 C0.99 0.94 0.99 1.89 0.98 2.86 C0.97 6.37 1 9.88 1.04 13.4 C1.06 14.92 1.06 16.43 1.04 17.95 C0.62 26.5 0.62 26.5 3.62 34.1 C5.71 35.66 5.71 35.66 9 37 C9 37.33 9 37.66 9 38 C3.72 38 -1.56 38 -7 38 C-7.33 37.34 -7.66 36.68 -8 36 C-5.52 35.5 -5.52 35.5 -3 35 C-2.67 26.75 -2.34 18.5 -2 10 C-1.34 10 -0.68 10 0 10 C0 6.7 0 3.4 0 0 Z " fill="#F821FC" transform="translate(853,632)"/>
<path d="M0 0 C1.27 3.82 0.25 5.24 -1 9 C-1.17 12.25 -1.17 12.25 -1 15 C0.45 15.68 0.45 15.68 1.94 16.38 C5 18 5 18 6 20 C0.39 20 -5.22 20 -11 20 C-11.33 19.34 -11.66 18.68 -12 18 C-11.24 17.48 -10.47 16.97 -9.69 16.44 C-6.36 13.42 -5.55 11.17 -4 7 C-3.67 6.34 -3.34 5.68 -3 5 C-2.34 5 -1.68 5 -1 5 C-0.67 3.35 -0.34 1.7 0 0 Z " fill="#F821FC" transform="translate(787,650)"/>
</svg>
